SplineFontDB: 3.0
FontName: Neuton-SC-Extrabold
FullName: Neuton SC Extrabold
FamilyName: Neuton SC
Weight: Bold
Copyright: Copyright (c) 2010, 2011 Brian M Zick (http://21326.info/), \nwith Reserved Font Name 'Neuton SC'.\n\nThis Font Software is licensed under the SIL Open Font License, Version 1.1.\nThis license is available with a FAQ at: http://scripts.sil.org/OFL\n   WITHOUT WARRANTIES OR CONDITIONS OF ANY KIND, either express or implied.\n   See the License for the specific language governing permissions and\n   limitations under the License.
UComments: "2011-6-6: Created." 
Version: 1.46
ItalicAngle: 0
UnderlinePosition: -361
UnderlineWidth: 0
Ascent: 1638
Descent: 410
LayerCount: 2
Layer: 0 0 "Back"  1
Layer: 1 0 "Fore"  0
XUID: [1021 467 2011608612 15596835]
FSType: 1
OS2Version: 1
OS2_WeightWidthSlopeOnly: 0
OS2_UseTypoMetrics: 0
CreationTime: 1307367768
ModificationTime: 1336420124
PfmFamily: 17
TTFWeight: 800
TTFWidth: 5
LineGap: 0
VLineGap: 0
Panose: 2 0 9 3 0 0 0 0 0 0
OS2TypoAscent: 2106
OS2TypoAOffset: 0
OS2TypoDescent: -485
OS2TypoDOffset: 0
OS2TypoLinegap: 0
OS2WinAscent: 2106
OS2WinAOffset: 0
OS2WinDescent: 485
OS2WinDOffset: 0
HheadAscent: 2106
HheadAOffset: 0
HheadDescent: -485
HheadDOffset: 0
OS2SubXSize: 1095
OS2SubYSize: 1179
OS2SubXOff: 0
OS2SubYOff: 235
OS2SupXSize: 1095
OS2SupYSize: 1179
OS2SupXOff: 0
OS2SupYOff: 809
OS2StrikeYSize: 84
OS2StrikeYPos: 4436
OS2Vendor: 'PfEd'
Lookup: 3 0 0 "'salt' Stylistic Alternates"  {"Alternate Substitution in Latin lookup 0-1"  } ['salt' ('DFLT' <'dflt' > 'latn' <'dflt' > ) ]
MarkAttachClasses: 1
DEI: 91125

StartChar: A
Encoding: 33 65 0
Width: 1502
VWidth: 0
Flags: HMW
LayerCount: 2
Back
SplineSet
0 0 m 5
 19 138 l 5
 180 241 l 5
 618 1205 l 5
 965 1270 l 5
 1305 238 l 5
 1453 145 l 5
 1441 -2 l 5
 716 -2 l 5
 732 136 l 5
 898 240 l 5
 869 341 l 5
 471 341 l 5
 431 240 l 5
 620 148 l 5
 605 0 l 5
 0 0 l 5
546 534 m 5
 815 534 l 5
 703 933 l 5
 546 534 l 5
EndSplineSet
Fore
SplineSet
34 0 m 1
 53 138 l 1
 204 241 l 1
 592 1205 l 1
 939 1270 l 1
 1329 238 l 1
 1467 145 l 1
 1455 -2 l 1
 740 -2 l 1
 756 136 l 1
 922 240 l 1
 884 352 l 1
 492 352 l 1
 455 240 l 1
 644 148 l 1
 629 0 l 1
 34 0 l 1
562 561 m 1
 813 561 l 1
 686 933 l 1
 562 561 l 1
EndSplineSet
Colour: ffffff
EndChar

StartChar: AE
Encoding: 133 198 1
Width: 1983
VWidth: 0
Flags: HMW
LayerCount: 2
Back
SplineSet
691 1100 m 1
 710 1244 l 1
 1883 1244 l 5
 1853 826 l 5
 1682 852 l 5
 1599 1072 l 5
 1254 1072 l 1
 1254 712 l 1
 1504 732.286 l 1
 1549 735.938 l 1
 1673 746 l 1
 1640 470 l 1
 1507 494.119 l 1
 1462 502.28 l 1
 1254 540 l 1
 1254 210 l 1
 1617 170 l 5
 1763 428 l 5
 1928 411 l 5
 1898 0 l 5
 707 0 l 1
 717 138 l 1
 881 217 l 1
 881 1030 l 1
 691 1100 l 1
EndSplineSet
Fore
SplineSet
45 -2 m 5
 65 162 l 5
 199 237 l 5
 760 1020 l 5
 580 1094 l 5
 601 1244 l 5
 1852 1244 l 5
 1822 826 l 5
 1651 852 l 5
 1568 1072 l 5
 1320 1072 l 5
 1337 708 l 5
 1469 724 l 5
 1497 727 l 5
 1675 749 l 5
 1643 507 l 5
 1477 523 l 5
 1453 526 l 5
 1344 536 l 5
 1360 198 l 5
 1626 180 l 5
 1772 428 l 5
 1937 411 l 5
 1907 0 l 5
 836 0 l 5
 849 138 l 5
 1012 217 l 5
 999 443 l 5
 597 443 l 5
 465 243 l 5
 646 150 l 5
 629 -2 l 5
 45 -2 l 5
701 615 m 5
 987 615 l 5
 975 1008 l 5
 701 615 l 5
EndSplineSet
Colour: ffffff
EndChar

StartChar: Aacute
Encoding: 128 193 2
Width: 1502
VWidth: 0
Flags: HMW
LayerCount: 2
Fore
SplineSet
34 0 m 1
 53 138 l 1
 204 241 l 1
 592 1205 l 1
 939 1270 l 1
 1329 238 l 1
 1467 145 l 1
 1455 -2 l 1
 740 -2 l 1
 756 136 l 1
 922 240 l 1
 884 352 l 1
 492 352 l 1
 455 240 l 1
 644 148 l 1
 629 0 l 1
 34 0 l 1
562 561 m 1
 813 561 l 1
 686 933 l 1
 562 561 l 1
633 1337 m 5
 778 1642 l 5
 1128 1632 l 5
 867 1311 l 5
 633 1337 l 5
EndSplineSet
Colour: ffffff
EndChar

StartChar: Acircumflex
Encoding: 129 194 3
Width: 1502
VWidth: 0
Flags: HMW
LayerCount: 2
Fore
SplineSet
34 0 m 1
 53 138 l 1
 204 241 l 1
 592 1205 l 1
 939 1270 l 1
 1329 238 l 1
 1467 145 l 1
 1455 -2 l 1
 740 -2 l 1
 756 136 l 1
 922 240 l 1
 884 352 l 1
 492 352 l 1
 455 240 l 1
 644 148 l 1
 629 0 l 1
 34 0 l 1
562 561 m 1
 813 561 l 1
 686 933 l 1
 562 561 l 1
464 1318 m 1
 617 1573 l 1
 942 1573 l 1
 1096 1318 l 1
 843 1309 l 1
 779 1430 l 1
 765 1430 l 1
 697 1308 l 1
 464 1318 l 1
EndSplineSet
Colour: ffffff
EndChar

StartChar: Adieresis
Encoding: 131 196 4
Width: 1502
VWidth: 0
Flags: HMW
LayerCount: 2
Fore
SplineSet
34 0 m 1
 53 138 l 1
 204 241 l 1
 592 1205 l 1
 939 1270 l 1
 1329 238 l 1
 1467 145 l 1
 1455 -2 l 1
 740 -2 l 1
 756 136 l 1
 922 240 l 1
 884 352 l 1
 492 352 l 1
 455 240 l 1
 644 148 l 1
 629 0 l 1
 34 0 l 1
562 561 m 1
 813 561 l 1
 686 933 l 1
 562 561 l 1
788.6 1415.9 m 0
 788.6 1461.4 818.96 1523 926.54 1523 c 0
 1040.72 1523 1070.42 1462.8 1070.42 1418 c 0
 1070.42 1358.5 1036.76 1308.8 925.88 1308.8 c 0
 811.04 1308.8 788.6 1364.8 788.6 1415.9 c 0
479.6 1415.9 m 0
 479.6 1461.4 509.96 1523 617.54 1523 c 0
 731.72 1523 761.42 1462.8 761.42 1418 c 0
 761.42 1358.5 727.76 1308.8 616.88 1308.8 c 0
 502.04 1308.8 479.6 1364.8 479.6 1415.9 c 0
EndSplineSet
Colour: ffffff
EndChar

StartChar: Agrave
Encoding: 127 192 5
Width: 1502
VWidth: 0
Flags: HMW
LayerCount: 2
Fore
SplineSet
34 0 m 1
 53 138 l 1
 204 241 l 1
 592 1205 l 1
 939 1270 l 1
 1329 238 l 1
 1467 145 l 1
 1455 -2 l 1
 740 -2 l 1
 756 136 l 1
 922 240 l 1
 884 352 l 1
 492 352 l 1
 455 240 l 1
 644 148 l 1
 629 0 l 1
 34 0 l 1
562 561 m 1
 813 561 l 1
 686 933 l 1
 562 561 l 1
383 1629 m 1
 644 1308 l 1
 878 1334 l 1
 733 1639 l 1
 383 1629 l 1
EndSplineSet
Colour: ffffff
EndChar

StartChar: Aring
Encoding: 132 197 6
Width: 1502
VWidth: 0
Flags: HMW
LayerCount: 2
Fore
SplineSet
34 0 m 1
 53 138 l 1
 204 241 l 1
 592 1205 l 1
 939 1270 l 1
 1329 238 l 1
 1467 145 l 1
 1455 -2 l 1
 740 -2 l 1
 756 136 l 1
 922 240 l 1
 884 352 l 1
 492 352 l 1
 455 240 l 1
 644 148 l 1
 629 0 l 1
 34 0 l 1
562 561 m 1
 813 561 l 1
 686 933 l 1
 562 561 l 1
486 1469 m 0
 486 1563 568 1642 770 1642 c 0
 972 1642 1055 1582 1055 1478 c 0
 1055 1392 974 1307 762 1307 c 0
 557 1307 486 1370 486 1469 c 0
697 1474 m 0
 697 1430 730 1417 765 1417 c 0
 797 1417 832 1436 832 1474 c 0
 832 1511 796 1533 759 1533 c 0
 729 1533 697 1508 697 1474 c 0
EndSplineSet
Colour: ffffff
EndChar

StartChar: Atilde
Encoding: 130 195 7
Width: 1502
VWidth: 0
Flags: HMW
LayerCount: 2
Fore
SplineSet
34 0 m 1
 53 138 l 1
 204 241 l 1
 592 1205 l 1
 939 1270 l 1
 1329 238 l 1
 1467 145 l 1
 1455 -2 l 1
 740 -2 l 1
 756 136 l 1
 922 240 l 1
 884 352 l 1
 492 352 l 1
 455 240 l 1
 644 148 l 1
 629 0 l 1
 34 0 l 1
562 561 m 1
 813 561 l 1
 686 933 l 1
 562 561 l 1
464 1319 m 1
 471 1593 603 1627 769 1576 c 2
 839 1554 l 2
 929 1526 971 1535 990 1604 c 1
 1105 1593 l 1
 1091 1336 989 1279 811 1334 c 2
 745 1354 l 2
 630 1389 604 1372 581 1308 c 1
 464 1319 l 1
EndSplineSet
Colour: ffffff
EndChar

StartChar: B
Encoding: 34 66 8
Width: 1311
VWidth: 0
Flags: HMW
LayerCount: 2
Fore
SplineSet
34 0 m 1
 48 138 l 1
 214 217 l 1
 214 1008 l 1
 45 1052 l 1
 55 1211 l 1
 194 1242 428 1257 722 1257 c 0
 1050 1257 1200 1144 1200 951 c 0
 1200 844 1104 735 997 694 c 1
 997 684 l 1
 1121 678 1276 558 1276 390 c 0
 1276 130 1043 0 628 0 c 2
 34 0 l 1
586 186 m 1
 728 186 l 2
 838 186 897 251 897 378 c 0
 897 478 818 557 672 557 c 2
 586 557 l 1
 586 186 l 1
586 698 m 1
 770 698 l 1
 805 741 835 827 835 907 c 0
 835 997 789 1080 650 1080 c 0
 630 1080 608 1079 586 1075 c 1
 586 698 l 1
EndSplineSet
Colour: ffffff
EndChar

StartChar: C
Encoding: 35 67 9
Width: 1235
VWidth: 0
Flags: HMW
LayerCount: 2
Back
SplineSet
0 619 m 4
 0 1004 285 1269 755 1269 c 4
 1169 1269 1449 1082 1449 603 c 4
 1449 180 1120 -27 685 -27 c 4
 215 -27 0 239 0 619 c 4
448 671 m 4
 448 526 497 163 738 163 c 4
 909 163 998 287 998 573 c 4
 998 720 962 1094 709 1094 c 4
 519 1094 448 933 448 671 c 4
EndSplineSet
Fore
SplineSet
36 583 m 0
 36 933 245 1272 773 1272 c 0
 896 1272 1075 1233 1148 1172 c 1
 1117 748 l 1
 947 771 l 1
 883 1003 l 1
 837 1055 754 1091 674 1091 c 0
 512 1091 428 934 428 676 c 0
 428 379 593 205 815 205 c 0
 960 205 1059 252 1141 313 c 1
 1200 178 l 1
 1129 78 926 -29 686 -29 c 0
 241 -29 36 203 36 583 c 0
EndSplineSet
Colour: ffffff
EndChar

StartChar: Ccedilla
Encoding: 134 199 10
Width: 1235
VWidth: 0
Flags: HMW
LayerCount: 2
Fore
SplineSet
36 583 m 0
 36 933 245 1272 773 1272 c 0
 896 1272 1075 1233 1148 1172 c 1
 1117 748 l 1
 947 771 l 1
 883 1003 l 1
 837 1055 754 1091 674 1091 c 0
 512 1091 428 934 428 676 c 0
 428 379 593 205 815 205 c 0
 960 205 1059 252 1141 313 c 1
 1200 178 l 1
 1129 78 926 -29 686 -29 c 0
 241 -29 36 203 36 583 c 0
472 -319 m 5
 552 -318 609 -285 609 -255 c 0
 609 -216 506 -181 453 -163 c 1
 641 -16 l 1
 815 -16 l 1
 697 -102 l 1
 803 -111 872 -155 872 -245 c 0
 872 -354 779 -407 508 -407 c 1
 472 -319 l 5
EndSplineSet
Colour: ffffff
EndChar

StartChar: D
Encoding: 36 68 11
Width: 1432
VWidth: 0
Flags: HMW
LayerCount: 2
Fore
SplineSet
34 0 m 1
 47 158 l 1
 227 241 l 1
 227 1003 l 1
 54 1049 l 1
 61 1206 l 1
 186 1231 442 1258 654 1258 c 0
 1203 1258 1395 992 1395 672 c 0
 1395 283 1114 0 642 0 c 2
 34 0 l 1
597 202 m 1
 672 202 l 2
 985 202 1020 459 1020 598 c 0
 1020 793 908 1057 615 1057 c 0
 608 1057 602 1057 597 1056 c 1
 597 202 l 1
EndSplineSet
Colour: ffffff
EndChar

StartChar: E
Encoding: 37 69 12
Width: 1306
VWidth: 0
Flags: HMW
LayerCount: 2
Fore
SplineSet
34 1100 m 1
 53 1244 l 1
 1226 1244 l 1
 1196 826 l 1
 1025 852 l 1
 942 1072 l 1
 597 1072 l 1
 597 712 l 1
 730 723 l 1
 762 725 l 1
 1016 746 l 1
 983 470 l 1
 742 514 l 1
 710 520 l 1
 597 540 l 1
 597 200 l 1
 960 180 l 1
 1106 428 l 1
 1271 411 l 1
 1241 0 l 1
 50 0 l 1
 60 158 l 5
 224 217 l 1
 224 1030 l 1
 34 1100 l 1
EndSplineSet
Colour: ffffff
EndChar

StartChar: Eacute
Encoding: 136 201 13
Width: 1306
VWidth: 0
Flags: HMW
LayerCount: 2
Fore
SplineSet
34 1100 m 1
 53 1244 l 1
 1226 1244 l 1
 1196 826 l 1
 1025 852 l 1
 942 1072 l 1
 597 1072 l 1
 597 712 l 1
 730 723 l 1
 762 725 l 1
 1016 746 l 1
 983 470 l 1
 742 514 l 1
 710 520 l 1
 597 540 l 1
 597 200 l 1
 960 180 l 1
 1106 428 l 1
 1271 411 l 1
 1241 0 l 1
 50 0 l 1
 60 158 l 5
 224 217 l 1
 224 1030 l 1
 34 1100 l 1
503 1336 m 5
 648 1641 l 5
 998 1631 l 5
 737 1310 l 5
 503 1336 l 5
EndSplineSet
Colour: ffffff
EndChar

StartChar: Ecircumflex
Encoding: 137 202 14
Width: 1306
VWidth: 0
Flags: HMW
LayerCount: 2
Fore
SplineSet
34 1100 m 1
 53 1244 l 1
 1226 1244 l 1
 1196 826 l 1
 1025 852 l 1
 942 1072 l 1
 597 1072 l 1
 597 712 l 1
 730 723 l 1
 762 725 l 1
 1016 746 l 1
 983 470 l 1
 742 514 l 1
 710 520 l 1
 597 540 l 1
 597 200 l 1
 960 180 l 1
 1106 428 l 1
 1271 411 l 1
 1241 0 l 1
 50 0 l 1
 60 158 l 5
 224 217 l 1
 224 1030 l 1
 34 1100 l 1
364 1316 m 1
 517 1571 l 1
 842 1571 l 1
 996 1316 l 1
 743 1307 l 1
 679 1428 l 1
 665 1428 l 1
 597 1306 l 1
 364 1316 l 1
EndSplineSet
Colour: ffffff
EndChar

StartChar: Edieresis
Encoding: 138 203 15
Width: 1306
VWidth: 0
Flags: HMW
LayerCount: 2
Fore
SplineSet
34 1100 m 1
 53 1244 l 1
 1226 1244 l 1
 1196 826 l 1
 1025 852 l 1
 942 1072 l 1
 597 1072 l 1
 597 712 l 1
 730 723 l 1
 762 725 l 1
 1016 746 l 1
 983 470 l 1
 742 514 l 1
 710 520 l 1
 597 540 l 1
 597 200 l 1
 960 180 l 1
 1106 428 l 1
 1271 411 l 1
 1241 0 l 1
 50 0 l 1
 60 158 l 5
 224 217 l 1
 224 1030 l 1
 34 1100 l 1
690.6 1417.9 m 0
 690.6 1463.4 720.96 1525 828.54 1525 c 0
 942.72 1525 972.42 1464.8 972.42 1420 c 0
 972.42 1360.5 938.76 1310.8 827.88 1310.8 c 0
 713.04 1310.8 690.6 1366.8 690.6 1417.9 c 0
381.6 1417.9 m 0
 381.6 1463.4 411.96 1525 519.54 1525 c 0
 633.72 1525 663.42 1464.8 663.42 1420 c 0
 663.42 1360.5 629.76 1310.8 518.88 1310.8 c 0
 404.04 1310.8 381.6 1366.8 381.6 1417.9 c 0
EndSplineSet
Colour: ffffff
EndChar

StartChar: Egrave
Encoding: 135 200 16
Width: 1306
VWidth: 0
Flags: HMW
LayerCount: 2
Fore
SplineSet
34 1100 m 1
 53 1244 l 1
 1226 1244 l 1
 1196 826 l 1
 1025 852 l 1
 942 1072 l 1
 597 1072 l 1
 597 712 l 1
 730 723 l 1
 762 725 l 1
 1016 746 l 1
 983 470 l 1
 742 514 l 1
 710 520 l 1
 597 540 l 1
 597 200 l 1
 960 180 l 1
 1106 428 l 1
 1271 411 l 1
 1241 0 l 1
 50 0 l 1
 60 158 l 5
 224 217 l 1
 224 1030 l 1
 34 1100 l 1
321 1632 m 1
 582 1311 l 1
 816 1337 l 1
 671 1642 l 1
 321 1632 l 1
EndSplineSet
Colour: ffffff
EndChar

StartChar: Eth
Encoding: 143 208 17
Width: 1540
VWidth: 0
Flags: HMW
LayerCount: 2
Fore
SplineSet
43 0 m 1
 66 138 l 1
 246 241 l 1
 246 499 l 5
 66 483 l 5
 81 666 l 5
 246 680 l 5
 246 1003 l 1
 73 1049 l 1
 80 1206 l 1
 276 1237 530 1258 673 1258 c 0
 1343 1258 1494 959 1494 652 c 0
 1494 311 1171 0 661 0 c 2
 43 0 l 1
616 202 m 1
 691 202 l 2
 1049 202 1089 459 1089 598 c 0
 1089 793 963 1057 634 1057 c 0
 595 1057 655 1052 616 1051 c 1
 616 712 l 5
 814 737 l 5
 795 548 l 5
 616 536 l 5
 616 202 l 1
EndSplineSet
Colour: ffffff
EndChar

StartChar: Euro
Encoding: 207 8364 18
Width: 1080
VWidth: 0
Flags: HMW
LayerCount: 2
Fore
SplineSet
37 321 m 1
 53 454 l 1
 690 454 l 1
 663 321 l 1
 37 321 l 1
32 511 m 1
 54 647 l 1
 732 647 l 1
 705 511 l 1
 32 511 l 1
127 439 m 0
 127 722 290 997 702 997 c 0
 795 997 929 970 984 928 c 1
 961 620 l 1
 811 643 l 1
 779 779 l 1
 737 811 687 822 649 822 c 0
 542 822 489 708 489 532 c 0
 489 331 566 199 731 199 c 0
 836 199 922 268 960 313 c 1
 1047 199 l 1
 979 76 826 -28 621 -28 c 0
 286 -28 127 159 127 439 c 0
EndSplineSet
Colour: ffffff
EndChar

StartChar: F
Encoding: 38 70 19
Width: 1256
VWidth: 0
Flags: HMW
LayerCount: 2
Fore
SplineSet
34 1100 m 1
 53 1244 l 1
 1221 1244 l 1
 1162 834 l 1
 995 861 l 1
 935 1072 l 1
 599 1072 l 1
 599 686 l 1
 826 709 l 1
 859 712 l 1
 1018 728 l 1
 985 452 l 1
 832 477 l 1
 790 483 l 1
 599 514 l 1
 599 227 l 1
 834 163 l 1
 818 0 l 1
 49 0 l 1
 65 138 l 1
 227 217 l 1
 227 1030 l 1
 34 1100 l 1
EndSplineSet
Colour: ffffff
EndChar

StartChar: G
Encoding: 39 71 20
Width: 1412
VWidth: 0
Flags: HMW
LayerCount: 2
Back
SplineSet
0 619 m 4
 0 1004 285 1269 755 1269 c 4
 1169 1269 1449 1082 1449 603 c 4
 1449 180 1120 -27 685 -27 c 4
 215 -27 0 239 0 619 c 4
448 671 m 4
 448 526 497 163 738 163 c 4
 909 163 998 287 998 573 c 4
 998 720 962 1094 709 1094 c 4
 519 1094 448 933 448 671 c 4
EndSplineSet
Fore
SplineSet
36 580 m 0
 36 1028 413 1271 777 1271 c 0
 1043 1271 1172 1221 1258 1185 c 1
 1217 746 l 1
 1029 761 l 1
 988 1009 l 1
 930 1052 859 1087 730 1087 c 0
 551 1087 444 978 444 696 c 0
 444 365 563 195 752 195 c 0
 832 195 884 205 925 255 c 1
 925 355 l 1
 704 419 l 1
 727 591 l 1
 1377 591 l 1
 1356 405 l 1
 1261 363 l 1
 1261 93 l 1
 1175 38 913 -24 756 -24 c 0
 276 -24 36 186 36 580 c 0
EndSplineSet
Colour: ffffff
EndChar

StartChar: H
Encoding: 40 72 21
Width: 1609
VWidth: 0
Flags: HMW
LayerCount: 2
Fore
SplineSet
34 1094 m 1
 59 1244 l 1
 749 1244 l 1
 730 1094 l 1
 593 1027 l 1
 593 744 l 1
 1010 744 l 1
 1010 1020 l 1
 859 1094 l 1
 876 1244 l 1
 1574 1244 l 1
 1555 1094 l 1
 1387 1027 l 1
 1387 211 l 1
 1566 148 l 1
 1552 0 l 1
 859 0 l 1
 873 138 l 1
 1010 217 l 1
 1010 493 l 1
 593 493 l 1
 593 211 l 1
 744 148 l 1
 726 0 l 1
 39 0 l 1
 51 138 l 1
 220 217 l 1
 220 1020 l 1
 34 1094 l 1
EndSplineSet
Colour: ffffff
EndChar

StartChar: I
Encoding: 41 73 22
Width: 816
VWidth: 0
Flags: HMW
LayerCount: 2
Fore
SplineSet
34 1094 m 1
 54 1244 l 1
 781 1244 l 1
 765 1084 l 1
 586 1017 l 1
 586 223 l 1
 766 160 l 1
 753 0 l 1
 36 0 l 1
 46 142 l 1
 222 221 l 1
 222 1020 l 1
 34 1094 l 1
EndSplineSet
Colour: ffffff
EndChar

StartChar: Iacute
Encoding: 140 205 23
Width: 816
VWidth: 0
Flags: HMW
LayerCount: 2
Fore
SplineSet
34 1094 m 1
 54 1244 l 1
 781 1244 l 1
 765 1084 l 1
 586 1017 l 1
 586 223 l 1
 766 160 l 1
 753 0 l 1
 36 0 l 1
 46 142 l 1
 222 221 l 1
 222 1020 l 1
 34 1094 l 1
221 1334 m 5
 366 1639 l 5
 716 1629 l 5
 455 1308 l 5
 221 1334 l 5
EndSplineSet
Colour: ffffff
EndChar

StartChar: Icircumflex
Encoding: 141 206 24
Width: 816
VWidth: 0
Flags: HMW
LayerCount: 2
Fore
SplineSet
34 1094 m 1
 54 1244 l 1
 781 1244 l 1
 765 1084 l 1
 586 1017 l 1
 586 223 l 1
 766 160 l 1
 753 0 l 1
 36 0 l 1
 46 142 l 1
 222 221 l 1
 222 1020 l 1
 34 1094 l 1
104 1315 m 1
 257 1570 l 1
 582 1570 l 1
 736 1315 l 1
 483 1306 l 1
 419 1427 l 1
 405 1427 l 1
 337 1305 l 1
 104 1315 l 1
EndSplineSet
Colour: ffffff
EndChar

StartChar: Idieresis
Encoding: 142 207 25
Width: 816
VWidth: 0
Flags: HMW
LayerCount: 2
Fore
SplineSet
34 1094 m 1
 54 1244 l 1
 781 1244 l 1
 765 1084 l 1
 586 1017 l 1
 586 223 l 1
 766 160 l 1
 753 0 l 1
 36 0 l 1
 46 142 l 1
 222 221 l 1
 222 1020 l 1
 34 1094 l 1
426.6 1411.9 m 0
 426.6 1457.4 456.96 1519 564.54 1519 c 0
 678.72 1519 708.42 1458.8 708.42 1414 c 0
 708.42 1354.5 674.76 1304.8 563.88 1304.8 c 0
 449.04 1304.8 426.6 1360.8 426.6 1411.9 c 0
117.6 1411.9 m 0
 117.6 1457.4 147.96 1519 255.54 1519 c 0
 369.72 1519 399.42 1458.8 399.42 1414 c 0
 399.42 1354.5 365.76 1304.8 254.88 1304.8 c 0
 140.04 1304.8 117.6 1360.8 117.6 1411.9 c 0
EndSplineSet
Colour: ffffff
EndChar

StartChar: Igrave
Encoding: 139 204 26
Width: 816
VWidth: 0
Flags: HMW
LayerCount: 2
Fore
SplineSet
34 1094 m 1
 54 1244 l 1
 781 1244 l 1
 765 1084 l 1
 586 1017 l 1
 586 223 l 1
 766 160 l 1
 753 0 l 1
 36 0 l 1
 46 142 l 1
 222 221 l 1
 222 1020 l 1
 34 1094 l 1
59 1629 m 1
 320 1308 l 1
 554 1334 l 1
 409 1639 l 1
 59 1629 l 1
EndSplineSet
Colour: ffffff
EndChar

StartChar: J
Encoding: 42 74 27
Width: 820
VWidth: 0
Flags: HMW
LayerCount: 2
Fore
SplineSet
34 -151 m 1
 177 -36 238 142 238 285 c 2
 238 1020 l 1
 53 1094 l 1
 72 1244 l 1
 785 1244 l 1
 765 1094 l 1
 605 1027 l 1
 605 434 l 2
 608 26 510 -111 151 -326 c 1
 34 -151 l 1
EndSplineSet
Colour: ffffff
EndChar

StartChar: K
Encoding: 43 75 28
Width: 1546
VWidth: 0
Flags: HMW
LayerCount: 2
Back
SplineSet
46 1094 m 1
 78 1244 l 1
 631 1244 l 1
 631 1094 l 1
 631 1000 l 1
 631 240 l 1
 631 148 l 1
 631 0 l 1
 49 0 l 1
 65 138 l 1
 267 241 l 1
 267 993 l 1
 46 1094 l 1
613 646 m 1
 843 1003 l 1
 1029 1244 l 1
 1404 1244 l 1
 1374 1094 l 1
 1128 1001 l 1
 856 670 l 1
 1060.08 398.852 1341.47 156.44 1473 113 c 1
 1441 2 l 1
 1410 -16 1364 -27 1291 -27 c 0
 922.378 -27 696.982 404 600 583 c 1
 613 646 l 1
EndSplineSet
Fore
SplineSet
34 1094 m 1
 66 1244 l 1
 786 1244 l 1
 763 1074 l 1
 619 1000 l 1
 619 240 l 1
 814 148 l 1
 802 0 l 1
 37 0 l 1
 53 138 l 1
 255 241 l 1
 255 993 l 1
 34 1094 l 1
650 578 m 1
 654 665 l 1
 671 686 691 712 719 750 c 2
 904 1003 l 1
 917 1082 l 1
 944 1244 l 1
 1462 1244 l 1
 1432 1094 l 1
 1211 1000 l 1
 958 670 l 1
 1136 460 l 2
 1277 292 1373 205 1486 146 c 2
 1511 133 l 1
 1479 2 l 1
 1409 -13 1345 -22 1285 -22 c 0
 1101 -22 974 57 794 346 c 2
 650 578 l 1
EndSplineSet
Colour: ffffff
EndChar

StartChar: L
Encoding: 44 76 29
Width: 1228
VWidth: 0
Flags: HMW
LayerCount: 2
Fore
SplineSet
34 0 m 1
 50 138 l 1
 210 217 l 1
 210 998 l 1
 38 1098 l 1
 57 1245 l 1
 800 1245 l 1
 779 1098 l 1
 583 1000 l 1
 583 200 l 5
 853 178 l 1
 1027 453 l 1
 1193 430 l 1
 1146 0 l 1
 34 0 l 1
EndSplineSet
Colour: ffffff
EndChar

StartChar: M
Encoding: 45 77 30
Width: 1873
VWidth: 0
Flags: HMW
LayerCount: 2
Fore
SplineSet
34 0 m 1
 55 154 l 1
 223 233 l 1
 281 1030 l 1
 97 1087 l 1
 113 1244 l 1
 764 1244 l 1
 821 1039 l 1
 949 553 l 1
 1105 1041 l 1
 1182 1244 l 1
 1812 1244 l 1
 1794 1087 l 1
 1642 1033 l 1
 1672 229 l 1
 1838 161 l 1
 1824 0 l 1
 1183 0 l 5
 1206 154 l 5
 1298 223 l 1
 1283 886 l 1
 1220.3 636 l 1
 1040 31 l 1
 747 -8 l 1
 638 384 l 1
 517 867 l 1
 485 229 l 1
 604 161 l 1
 579 0 l 1
 34 0 l 1
EndSplineSet
Colour: ffffff
EndChar

StartChar: N
Encoding: 46 78 31
Width: 1442
VWidth: 0
Flags: HMW
LayerCount: 2
Fore
SplineSet
38 1087 m 1
 52 1244 l 1
 477 1244 l 1
 824.099 787 l 2
 880 709.197 1034 463 1034 463 c 1
 1024 636 l 1
 1024 1020 l 1
 836 1094 l 1
 860 1244 l 1
 1407 1244 l 1
 1382 1094 l 1
 1244 1027 l 1
 1244 15 l 1
 931 -29 l 1
 657.54 336 l 2
 563 462 440 669 440 669 c 1
 448 516 l 1
 448 211 l 1
 628 148 l 1
 615 0 l 1
 34 0 l 1
 44 138 l 1
 215 217 l 1
 215 1003 l 1
 38 1087 l 1
EndSplineSet
Colour: ffffff
EndChar

StartChar: Ntilde
Encoding: 144 209 32
Width: 1442
VWidth: 0
Flags: HMW
LayerCount: 2
Fore
SplineSet
34 0 m 1
 44 138 l 1
 215 217 l 1
 215 1003 l 1
 38 1087 l 1
 52 1244 l 1
 462 1244 l 1
 1024 513 l 1
 1024 1020 l 1
 836 1094 l 1
 860 1244 l 1
 1407 1244 l 1
 1382 1094 l 1
 1244 1027 l 1
 1244 15 l 1
 951 -29 l 1
 448 619 l 1
 448 211 l 1
 628 148 l 1
 615 0 l 1
 34 0 l 1
377 1319 m 1
 384 1593 516 1627 682 1576 c 2
 752 1554 l 2
 842 1526 884 1535 903 1604 c 1
 1018 1593 l 1
 1004 1336 902 1279 724 1334 c 2
 658 1354 l 2
 543 1389 517 1372 494 1308 c 1
 377 1319 l 1
EndSplineSet
Colour: ffffff
EndChar

StartChar: O
Encoding: 47 79 33
Width: 1355
VWidth: 0
Flags: HMW
LayerCount: 2
Fore
SplineSet
36 619 m 4
 36 1004 285 1269 699 1269 c 4
 1060 1269 1318 1092 1318 613 c 4
 1318 196 1027 -27 659 -27 c 4
 230 -27 36 239 36 619 c 4
444 671 m 4
 444 526 488 163 712 163 c 4
 837 163 904 287 904 573 c 4
 904 720 871 1094 653 1094 c 4
 500 1094 444 933 444 671 c 4
EndSplineSet
Colour: ffffff
EndChar

StartChar: Oacute
Encoding: 146 211 34
Width: 1355
VWidth: 0
Flags: HMW
LayerCount: 2
Fore
SplineSet
36 619 m 4
 36 1004 285 1269 699 1269 c 4
 1060 1269 1318 1092 1318 613 c 4
 1318 196 1027 -27 659 -27 c 4
 230 -27 36 239 36 619 c 4
444 671 m 4
 444 526 488 163 712 163 c 4
 837 163 904 287 904 573 c 4
 904 720 871 1094 653 1094 c 4
 500 1094 444 933 444 671 c 4
481 1336 m 5
 626 1641 l 5
 976 1631 l 5
 715 1310 l 5
 481 1336 l 5
EndSplineSet
Colour: ffffff
EndChar

StartChar: Ocircumflex
Encoding: 147 212 35
Width: 1355
VWidth: 0
Flags: HMW
LayerCount: 2
Fore
SplineSet
36 619 m 4
 36 1004 285 1269 699 1269 c 4
 1060 1269 1318 1092 1318 613 c 4
 1318 196 1027 -27 659 -27 c 4
 230 -27 36 239 36 619 c 4
444 671 m 4
 444 526 488 163 712 163 c 4
 837 163 904 287 904 573 c 4
 904 720 871 1094 653 1094 c 4
 500 1094 444 933 444 671 c 4
372 1318 m 1
 525 1573 l 1
 850 1573 l 1
 1004 1318 l 1
 751 1309 l 1
 687 1430 l 1
 673 1430 l 1
 605 1308 l 1
 372 1318 l 1
EndSplineSet
Colour: ffffff
EndChar

StartChar: Odieresis
Encoding: 149 214 36
Width: 1355
VWidth: 0
Flags: HMW
LayerCount: 2
Fore
SplineSet
36 619 m 4
 36 1004 285 1269 699 1269 c 4
 1060 1269 1318 1092 1318 613 c 4
 1318 196 1027 -27 659 -27 c 4
 230 -27 36 239 36 619 c 4
444 671 m 4
 444 526 488 163 712 163 c 4
 837 163 904 287 904 573 c 4
 904 720 871 1094 653 1094 c 4
 500 1094 444 933 444 671 c 4
686.6 1417.9 m 0
 686.6 1463.4 716.96 1525 824.54 1525 c 0
 938.72 1525 968.42 1464.8 968.42 1420 c 0
 968.42 1360.5 934.76 1310.8 823.88 1310.8 c 0
 709.04 1310.8 686.6 1366.8 686.6 1417.9 c 0
377.6 1417.9 m 0
 377.6 1463.4 407.96 1525 515.54 1525 c 0
 629.72 1525 659.42 1464.8 659.42 1420 c 0
 659.42 1360.5 625.76 1310.8 514.88 1310.8 c 0
 400.04 1310.8 377.6 1366.8 377.6 1417.9 c 0
EndSplineSet
Colour: ffffff
EndChar

StartChar: Ograve
Encoding: 145 210 37
Width: 1355
VWidth: 0
Flags: HMW
LayerCount: 2
Fore
SplineSet
36 619 m 4
 36 1004 285 1269 699 1269 c 4
 1060 1269 1318 1092 1318 613 c 4
 1318 196 1027 -27 659 -27 c 4
 230 -27 36 239 36 619 c 4
444 671 m 4
 444 526 488 163 712 163 c 4
 837 163 904 287 904 573 c 4
 904 720 871 1094 653 1094 c 4
 500 1094 444 933 444 671 c 4
349 1632 m 1
 610 1311 l 1
 844 1337 l 1
 699 1642 l 1
 349 1632 l 1
EndSplineSet
Colour: ffffff
EndChar

StartChar: Oslash
Encoding: 151 216 38
Width: 1355
VWidth: 0
Flags: HMW
LayerCount: 2
Back
SplineSet
66.0283 44 m 5
 271.028 270 l 5
 444.028 302 l 5
 1059.03 1058 l 5
 1077.03 1158 l 5
 1209.03 1282 l 5
 1452.03 1231 l 5
 1213.03 987 l 5
 1100.03 968 l 5
 486.028 203 l 5
 415.028 96 l 5
 312.028 -19 l 5
 66.0283 44 l 5
494.028 671 m 0
 494.028 526 541.028 163 782.028 163 c 0
 953.028 163 1044.03 287 1044.03 573 c 0
 1044.03 720 1006.03 1094 753.028 1094 c 0
 563.028 1094 494.028 933 494.028 671 c 0
46.0283 619 m 1
 46.0283 1004 329.028 1269 799.028 1269 c 0
 1213.03 1269 1508.03 1092 1508.03 613 c 0
 1508.03 196 1164.03 -27 729.028 -27 c 1
 259.345 -27 43.1416 239.001 46.0283 619 c 1
EndSplineSet
Fore
SplineSet
36 619 m 0
 36 1004 285 1269 699 1269 c 0
 1060 1269 1318 1092 1318 613 c 0
 1318 196 1027 -27 659 -27 c 0
 230 -27 36 239 36 619 c 0
-14 64 m 1
 191 290 l 1
 364 322 l 1
 915 1012 l 1
 933 1112 l 1
 1097 1262 l 1
 1340 1211 l 1
 1069 941 l 1
 956 922 l 1
 406 223 l 1
 335 116 l 1
 232 1 l 1
 -14 64 l 1
444 671 m 0
 444 526 488 163 712 163 c 0
 837 163 904 287 904 573 c 0
 904 720 871 1094 653 1094 c 0
 500 1094 444 933 444 671 c 0
EndSplineSet
Colour: ffffff
EndChar

StartChar: Otilde
Encoding: 148 213 39
Width: 1355
VWidth: 0
Flags: HMW
LayerCount: 2
Fore
SplineSet
36 619 m 4
 36 1004 285 1269 699 1269 c 4
 1060 1269 1318 1092 1318 613 c 4
 1318 196 1027 -27 659 -27 c 4
 230 -27 36 239 36 619 c 4
444 671 m 4
 444 526 488 163 712 163 c 4
 837 163 904 287 904 573 c 4
 904 720 871 1094 653 1094 c 4
 500 1094 444 933 444 671 c 4
350 1319 m 1
 357 1593 489 1627 655 1576 c 2
 725 1554 l 2
 815 1526 857 1535 876 1604 c 1
 991 1593 l 1
 977 1336 875 1279 697 1334 c 2
 631 1354 l 2
 516 1389 490 1372 467 1308 c 1
 350 1319 l 1
EndSplineSet
Colour: ffffff
EndChar

StartChar: P
Encoding: 48 80 40
Width: 1265
VWidth: 0
Flags: HMW
LayerCount: 2
Fore
SplineSet
34 0 m 1
 56 138 l 1
 243 217 l 1
 243 1008 l 1
 53 1052 l 1
 66 1211 l 1
 272 1244 429 1267 681 1267 c 0
 1013 1267 1229 1170 1229 858 c 0
 1229 618 1031 423 732 423 c 0
 706 423 679 425 651 428 c 1
 619 602 l 1
 640 602 l 2
 789 602 859 685 859 800 c 0
 859 938 796 1054 664 1054 c 0
 643 1054 620 1051 597 1047 c 1
 597 233 l 1
 848 164 l 1
 824 0 l 1
 34 0 l 1
EndSplineSet
Colour: ffffff
EndChar

StartChar: Q
Encoding: 49 81 41
Width: 1384
VWidth: 0
Flags: HMW
LayerCount: 2
Fore
SplineSet
36 609 m 0
 36 994 299 1269 691 1269 c 0
 1081 1269 1347 1086 1347 643 c 0
 1347 321 1147 89 929 16 c 1
 981 -104 1123 -164 1274 -200 c 1
 1253 -335 l 1
 1178 -359 1098 -373 1022 -373 c 0
 815 -373 638 -272 660 -26 c 1
 643 -27 638 -27 621 -27 c 0
 244 -27 36 229 36 609 c 0
431 681 m 0
 431 388 539 184 765 147 c 1
 907 231 937 385 937 593 c 0
 937 769 886 1094 633 1094 c 0
 487 1094 431 937 431 681 c 0
EndSplineSet
Colour: ffffff
EndChar

StartChar: R
Encoding: 50 82 42
Width: 1485
VWidth: 0
Flags: HMW
LayerCount: 2
Back
SplineSet
7 1094 m 5
 39 1244 l 5
 593 1244 l 5
 592 1094 l 5
 592 1000 l 5
 592 240 l 5
 787 148 l 5
 775 0 l 5
 10 0 l 5
 26 138 l 5
 228 241 l 5
 228 993 l 5
 7 1094 l 5
627 665 m 5
 644 686 664 712 692 750 c 6
 877 1003 l 5
 890 1082 l 5
 917 1244 l 5
 1435 1244 l 5
 1405 1094 l 5
 1184 1000 l 5
 929 670 l 5
 1107 460 l 6
 1249 292 1345.59 204.975 1459 146 c 6
 1484 133 l 5
 1452 2 l 5
 1381.65 -12.8231 1317.72 -21.5566 1258.09 -21.5566 c 4
 1074.38 -21.5566 949.66 58.7835 767 346 c 6
 622 574 l 5
 627 665 l 5
EndSplineSet
Fore
SplineSet
34 0 m 1
 53 138 l 1
 243 217 l 1
 243 996 l 1
 51 1043 l 1
 63 1203 l 1
 205 1232 405 1255 670 1255 c 0
 1058 1255 1266 1167 1266 908 c 0
 1266 729 1156 623 1032 572 c 1
 1032 571 l 1
 1135 420 l 2
 1225 288 1298 214 1411 152 c 2
 1450 133 l 1
 1419 2 l 1
 1381 -16 1308 -27 1235 -27 c 0
 1041 -27 876 85 790 388 c 2
 767 469 l 1
 613 469 l 1
 613 209 l 1
 766 155 l 1
 754 0 l 1
 34 0 l 1
613 648 m 1
 816 648 l 1
 861 694 885 756 885 860 c 0
 885 974 792 1075 646 1075 c 0
 635 1075 624 1075 613 1074 c 1
 613 648 l 1
EndSplineSet
Colour: ffffff
EndChar

StartChar: S
Encoding: 51 83 43
Width: 1008
VWidth: 0
Flags: HMW
LayerCount: 2
Back
SplineSet
34 66 m 5
 68 438 l 5
 245 409 l 5
 287 222 l 5
 326.387 178.483 418.289 156 498 156 c 4
 585.687 156 660.706 213.041 660.706 270.8 c 4
 660.706 444.072 164.697 458.698 67 742.781 c 4
 51.9956 786.411 45.1339 828.005 45.1339 867.288 c 4
 45.1339 1111.18 309.619 1266 532 1266 c 4
 642.022 1266 843.56 1229.56 896 1186 c 5
 896 1162 868 824 868 824 c 5
 695 854 l 5
 656 1017 l 21
 619.845 1072.2 530.778 1106 460 1106 c 4
 371.286 1106 325 1060.08 325 990 c 4
 325 813.823 973 772.629 973 391 c 4
 973 70.2525 639.325 -23 466 -23 c 4
 246.177 -23 85.6104 15.8252 34 66 c 5
EndSplineSet
Fore
SplineSet
34 66 m 1
 68 438 l 1
 245 409 l 1
 287 222 l 1
 326 178 418 156 498 156 c 0
 586 156 661 213 661 271 c 0
 661 460 45 460 45 857 c 0
 45 1107 259 1266 532 1266 c 0
 642 1266 844 1230 896 1186 c 1
 896 1162 868 824 868 824 c 1
 695 854 l 1
 656 1017 l 17
 620 1072 531 1106 460 1106 c 0
 371 1106 325 1060 325 990 c 0
 325 814 973 773 973 391 c 0
 973 70 639 -23 466 -23 c 0
 246 -23 86 16 34 66 c 1
EndSplineSet
Colour: ffffff
EndChar

StartChar: T
Encoding: 52 84 44
Width: 1297
VWidth: 0
Flags: HMW
LayerCount: 2
Back
SplineSet
123 1244 m 5
 1234 1244 l 5
 1200 906 l 5
 1105 921 l 5
 1067 1152 l 5
 762 1152 l 5
 762 114 l 5
 947 80 l 5
 933 0 l 5
 394 0 l 5
 401 74 l 5
 570 121 l 5
 570 1152 l 5
 275 1152 l 5
 222 909 l 5
 131 922 l 5
 123 1244 l 5
EndSplineSet
Fore
SplineSet
37 1244 m 1
 1261 1244 l 1
 1229 786 l 1
 1046 817 l 1
 982 1072 l 1
 818 1072 l 1
 818 208 l 1
 1030 153 l 1
 1014 0 l 1
 257 0 l 1
 270 140 l 1
 457 209 l 1
 457 1072 l 1
 297 1072 l 1
 210 776 l 1
 40 802 l 1
 37 1244 l 1
EndSplineSet
Colour: ffffff
EndChar

StartChar: Thorn
Encoding: 157 222 45
Width: 1281
VWidth: 0
Flags: HMW
LayerCount: 2
Fore
SplineSet
50 1094 m 1
 70 1244 l 1
 797 1244 l 1
 781 1084 l 1
 602 1017 l 1
 602 982 l 1
 641 989 681 993 721 993 c 0
 1035 993 1236 942 1236 645 c 0
 1236 405 1038 242 739 242 c 0
 713 242 686 244 658 247 c 1
 626 421 l 1
 785 421 866 465 866 597 c 0
 866 719 803 790 671 790 c 0
 650 790 627 787 604 783 c 1
 604 222 l 1
 782 160 l 1
 769 0 l 1
 52 0 l 1
 62 142 l 1
 238 221 l 1
 238 1020 l 1
 50 1094 l 1
EndSplineSet
Colour: ffffff
EndChar

StartChar: U
Encoding: 53 85 46
Width: 1563
VWidth: 0
Flags: HMW
LayerCount: 2
Fore
SplineSet
34 1094 m 1
 63 1244 l 1
 783 1244 l 1
 761 1094 l 1
 596 1027 l 1
 596 501 l 2
 596 280 705 193 862 193 c 0
 1003 193 1099 281 1099 487 c 2
 1099 1020 l 1
 923 1094 l 1
 943 1244 l 1
 1528 1244 l 1
 1511 1094 l 1
 1346 1027 l 1
 1342 555 l 2
 1338 152 1143 -27 791 -27 c 0
 567 -27 224 -5 224 474 c 2
 224 1020 l 1
 34 1094 l 1
EndSplineSet
Colour: ffffff
EndChar

StartChar: Uacute
Encoding: 153 218 47
Width: 1563
VWidth: 0
Flags: HMW
LayerCount: 2
Fore
SplineSet
34 1094 m 1
 63 1244 l 1
 783 1244 l 1
 761 1094 l 1
 596 1027 l 1
 596 501 l 2
 596 280 705 193 862 193 c 0
 1003 193 1099 281 1099 487 c 2
 1099 1020 l 1
 923 1094 l 1
 943 1244 l 1
 1528 1244 l 1
 1511 1094 l 1
 1346 1027 l 1
 1342 555 l 2
 1338 152 1143 -27 791 -27 c 0
 567 -27 224 -5 224 474 c 2
 224 1020 l 1
 34 1094 l 1
665 1336 m 5
 810 1641 l 5
 1160 1631 l 5
 899 1310 l 5
 665 1336 l 5
EndSplineSet
Colour: ffffff
EndChar

StartChar: Ucircumflex
Encoding: 154 219 48
Width: 1563
VWidth: 0
Flags: HMW
LayerCount: 2
Fore
SplineSet
34 1094 m 1
 63 1244 l 1
 783 1244 l 1
 761 1094 l 1
 596 1027 l 1
 596 501 l 2
 596 280 705 193 862 193 c 0
 1003 193 1099 281 1099 487 c 2
 1099 1020 l 1
 923 1094 l 1
 943 1244 l 1
 1528 1244 l 1
 1511 1094 l 1
 1346 1027 l 1
 1342 555 l 2
 1338 152 1143 -27 791 -27 c 0
 567 -27 224 -5 224 474 c 2
 224 1020 l 1
 34 1094 l 1
536 1321 m 1
 689 1576 l 1
 1014 1576 l 1
 1168 1321 l 1
 915 1312 l 1
 851 1433 l 1
 837 1433 l 1
 769 1311 l 1
 536 1321 l 1
EndSplineSet
Colour: ffffff
EndChar

StartChar: Udieresis
Encoding: 155 220 49
Width: 1563
VWidth: 0
Flags: HMW
LayerCount: 2
Fore
SplineSet
34 1094 m 1
 63 1244 l 1
 783 1244 l 1
 761 1094 l 1
 596 1027 l 1
 596 501 l 2
 596 280 705 193 862 193 c 0
 1003 193 1099 281 1099 487 c 2
 1099 1020 l 1
 923 1094 l 1
 943 1244 l 1
 1528 1244 l 1
 1511 1094 l 1
 1346 1027 l 1
 1342 555 l 2
 1338 152 1143 -27 791 -27 c 0
 567 -27 224 -5 224 474 c 2
 224 1020 l 1
 34 1094 l 1
871.6 1417.9 m 0
 871.6 1463.4 901.96 1525 1009.54 1525 c 0
 1123.72 1525 1153.42 1464.8 1153.42 1420 c 0
 1153.42 1360.5 1119.76 1310.8 1008.88 1310.8 c 0
 894.04 1310.8 871.6 1366.8 871.6 1417.9 c 0
562.6 1417.9 m 0
 562.6 1463.4 592.96 1525 700.54 1525 c 0
 814.72 1525 844.42 1464.8 844.42 1420 c 0
 844.42 1360.5 810.76 1310.8 699.88 1310.8 c 0
 585.04 1310.8 562.6 1366.8 562.6 1417.9 c 0
EndSplineSet
Colour: ffffff
EndChar

StartChar: Ugrave
Encoding: 152 217 50
Width: 1563
VWidth: 0
Flags: HMW
LayerCount: 2
Fore
SplineSet
34 1094 m 1
 63 1244 l 1
 783 1244 l 1
 761 1094 l 1
 596 1027 l 1
 596 501 l 2
 596 280 705 193 862 193 c 0
 1003 193 1099 281 1099 487 c 2
 1099 1020 l 1
 923 1094 l 1
 943 1244 l 1
 1528 1244 l 1
 1511 1094 l 1
 1346 1027 l 1
 1342 555 l 2
 1338 152 1143 -27 791 -27 c 0
 567 -27 224 -5 224 474 c 2
 224 1020 l 1
 34 1094 l 1
503 1632 m 1
 764 1311 l 1
 998 1337 l 1
 853 1642 l 1
 503 1632 l 1
EndSplineSet
Colour: ffffff
EndChar

StartChar: V
Encoding: 54 86 51
Width: 1539
VWidth: 0
Flags: HMW
LayerCount: 2
Fore
SplineSet
34 1087 m 1
 54 1244 l 1
 790 1244 l 1
 767 1087 l 1
 615 1027 l 1
 850 391 l 1
 1078 1025 l 1
 924 1087 l 1
 939 1244 l 1
 1504 1244 l 1
 1489 1087 l 1
 1355 1027 l 1
 931 25 l 5
 578 -33 l 5
 179 1025 l 1
 34 1087 l 1
EndSplineSet
Colour: ffffff
EndChar

StartChar: W
Encoding: 55 87 52
Width: 2106
VWidth: 0
Flags: HMW
LayerCount: 2
Fore
SplineSet
34 1089 m 1
 45 1244 l 1
 800 1244 l 1
 764 1081 l 1
 611 1027 l 1
 732.834 599 l 1
 755 456 l 1
 940 1200 l 1
 1279 1240 l 1
 1449.55 629 l 1
 1485 472 l 1
 1638 1030 l 1
 1471 1084 l 1
 1492 1244 l 1
 2071 1244 l 1
 2046 1087 l 1
 1914 1033 l 1
 1579 28 l 1
 1246 -33 l 1
 1039 721 l 1
 861 28 l 1
 515 -34 l 1
 210 1023 l 1
 34 1089 l 1
EndSplineSet
Colour: ffffff
EndChar

StartChar: X
Encoding: 56 88 53
Width: 1413
VWidth: 0
Flags: HMW
LayerCount: 2
Back
SplineSet
1313 235 m 13
 720 1000 l 5
 781 1076 l 5
 804 1244 l 5
 210 1244 l 5
 182 1076 l 5
 321 1002 l 13
 905 241 l 5
 825 166 l 5
 796 0 l 5
 1420 0 l 5
 1446 169 l 5
 1313 235 l 13
306 233 m 13
 1009 1014 l 5
 975 1084 l 5
 1002 1244 l 5
 1440 1244 l 5
 1416 1087 l 5
 1286 1015 l 13
 600 232 l 5
 653 167 l 5
 622 0 l 5
 152 0 l 5
 177 157 l 5
 306 233 l 13
EndSplineSet
Fore
SplineSet
34 0 m 1
 59 157 l 1
 188 233 l 1
 514 591 l 1
 173 1012 l 1
 47 1066 l 1
 75 1244 l 1
 720 1244 l 1
 693 1076 l 1
 602 1010 l 1
 782 790 l 1
 921 1014 l 1
 807 1084 l 1
 834 1244 l 1
 1342 1244 l 1
 1318 1087 l 1
 1188 1015 l 1
 903 645 l 1
 1275 225 l 1
 1378 179 l 1
 1352 0 l 1
 708 0 l 1
 737 166 l 1
 827 231 l 1
 653 436 l 1
 482 232 l 1
 625 167 l 1
 594 0 l 1
 34 0 l 1
EndSplineSet
Colour: ffffff
EndChar

StartChar: Y
Encoding: 57 89 54
Width: 1357
VWidth: 0
Flags: HMW
LayerCount: 2
Fore
SplineSet
34 1089 m 1
 66 1245 l 1
 727 1245 l 1
 699 1089 l 1
 624 1028 l 1
 773 739 l 1
 924 1025 l 1
 825 1087 l 1
 849 1244 l 1
 1322 1244 l 1
 1298 1087 l 1
 1184 1027 l 1
 868 498 l 1
 868 221 l 1
 1035 140 l 1
 1022 0 l 1
 320 0 l 1
 338 138 l 1
 497 217 l 1
 497 485 l 1
 168 1027 l 1
 34 1089 l 1
EndSplineSet
Colour: ffffff
EndChar

StartChar: Yacute
Encoding: 156 221 55
Width: 1357
VWidth: 0
Flags: HMW
LayerCount: 2
Fore
SplineSet
34 1089 m 1
 66 1245 l 1
 727 1245 l 1
 699 1089 l 1
 624 1028 l 1
 773 739 l 1
 924 1025 l 1
 825 1087 l 1
 849 1244 l 1
 1322 1244 l 1
 1298 1087 l 1
 1184 1027 l 1
 868 498 l 1
 868 221 l 1
 1035 140 l 1
 1022 0 l 1
 320 0 l 1
 338 138 l 1
 497 217 l 1
 497 485 l 1
 168 1027 l 1
 34 1089 l 1
621 1336 m 5
 766 1641 l 5
 1116 1631 l 5
 855 1310 l 5
 621 1336 l 5
EndSplineSet
Colour: ffffff
EndChar

StartChar: Z
Encoding: 58 90 56
Width: 1142
VWidth: 0
Flags: HMW
LayerCount: 2
Fore
SplineSet
34 236 m 1
 665 1069 l 1
 325 1069 l 1
 262 812 l 1
 62 844 l 1
 73 1244 l 1
 1104 1244 l 1
 1096 1089 l 1
 411 206 l 1
 769 176 l 1
 956 457 l 1
 1106 434 l 1
 1045 0 l 1
 47 0 l 1
 34 236 l 1
EndSplineSet
Colour: ffffff
EndChar

StartChar: a
Encoding: 65 97 57
Width: 1216
VWidth: 0
Flags: HMW
LayerCount: 2
Back
SplineSet
0 188 m 4
 0 366 162 514 458 512 c 5
 458 607 l 6
 458 700 392 746 343 746 c 4
 286 746 262 698 239 568 c 5
 150 554 34 596 34 713 c 4
 34 846 338 948 481 948 c 4
 706 948 766 853 766 641 c 6
 766 374 l 6
 766 271 795 248 904 213 c 6
 932 204 l 5
 907 34 l 5
 832 -1 769 -24 671 -24 c 4
 562 -24 500 26 469 106 c 6
 464 119 l 5
 451 125 l 5
 421 45 307 -23 201 -23 c 4
 97 -23 0 43 0 188 c 4
458 234 m 5
 458 398 l 5
 334 384 296 322 296 279 c 4
 296 239 325 205 376 205 c 4
 401 205 430 214 458 234 c 5
EndSplineSet
Fore
SplineSet
53 0 m 1
 72 138 l 1
 173 241 l 1
 461 934 l 1
 798 999 l 1
 1075 238 l 1
 1163 145 l 1
 1151 0 l 1
 599 0 l 1
 615 136 l 1
 691 240 l 9
 555 682 l 25
 404 240 l 17
 503 148 l 1
 488 0 l 1
 53 0 l 1
311 342 m 9
 381 461 l 17
 712 461 l 9
 783 342 l 17
 311 342 l 9
EndSplineSet
Colour: ffffff
EndChar

StartChar: aacute
Encoding: 160 225 58
Width: 1176
VWidth: 0
Flags: HMW
LayerCount: 2
Fore
SplineSet
33 0 m 1
 52 138 l 1
 153 241 l 1
 441 934 l 1
 778 999 l 1
 1055 238 l 1
 1143 145 l 1
 1131 -2 l 1
 579 -2 l 1
 595 136 l 1
 671 240 l 9
 535 682 l 25
 384 240 l 17
 483 148 l 1
 468 0 l 1
 33 0 l 1
291 342 m 9
 361 461 l 17
 692 461 l 9
 763 342 l 17
 291 342 l 9
477 1063 m 5
 622 1368 l 5
 972 1358 l 5
 711 1037 l 5
 477 1063 l 5
EndSplineSet
Colour: ffffff
EndChar

StartChar: acircumflex
Encoding: 161 226 59
Width: 1176
VWidth: 0
Flags: HMW
LayerCount: 2
Fore
SplineSet
33 0 m 1
 52 138 l 1
 153 241 l 1
 441 934 l 1
 778 999 l 1
 1055 238 l 1
 1143 145 l 1
 1131 -2 l 1
 579 -2 l 1
 595 136 l 1
 671 240 l 9
 535 682 l 25
 384 240 l 17
 483 148 l 1
 468 0 l 1
 33 0 l 1
291 342 m 9
 361 461 l 17
 692 461 l 9
 763 342 l 17
 291 342 l 9
304 1049 m 1
 457 1304 l 1
 782 1304 l 1
 936 1049 l 1
 683 1040 l 1
 619 1161 l 1
 605 1161 l 1
 537 1039 l 1
 304 1049 l 1
EndSplineSet
Colour: ffffff
EndChar

StartChar: acute
Encoding: 115 180 60
Width: 584
VWidth: 0
Flags: HMW
LayerCount: 2
Fore
SplineSet
45 1333 m 5
 190 1638 l 5
 540 1628 l 5
 279 1307 l 5
 45 1333 l 5
EndSplineSet
Colour: ffffff
EndChar

StartChar: adieresis
Encoding: 163 228 61
Width: 1176
VWidth: 0
Flags: HMW
LayerCount: 2
Fore
SplineSet
33 0 m 1
 52 138 l 1
 153 241 l 1
 441 934 l 1
 778 999 l 1
 1055 238 l 1
 1143 145 l 1
 1131 -2 l 1
 579 -2 l 1
 595 136 l 1
 671 240 l 9
 535 682 l 25
 384 240 l 17
 483 148 l 1
 468 0 l 1
 33 0 l 1
291 342 m 9
 361 461 l 17
 692 461 l 9
 763 342 l 17
 291 342 l 9
313 1146 m 0
 313 1192 343 1253 451 1253 c 0
 565 1253 594 1193 594 1148 c 0
 594 1088 561 1039 450 1039 c 0
 335 1039 313 1095 313 1146 c 0
622 1146 m 0
 622 1192 652 1253 760 1253 c 0
 874 1253 903 1193 903 1148 c 0
 903 1088 870 1039 759 1039 c 0
 644 1039 622 1095 622 1146 c 0
EndSplineSet
Colour: ffffff
EndChar

StartChar: ae
Encoding: 165 230 62
Width: 1564
VWidth: 0
Flags: HMW
LayerCount: 2
Fore
SplineSet
33 -2 m 1
 53 162 l 1
 137 237 l 1
 499 755 l 1
 369 829 l 1
 390 979 l 1
 1487 979 l 1
 1457 611 l 1
 1286 637 l 1
 1203 807 l 1
 1018 807 l 1
 1039 550 l 1
 1158 566 l 1
 1185 569 l 1
 1317 586 l 1
 1284 380 l 1
 1170 396 l 1
 1146 400 l 1
 1051 414 l 1
 1068 203 l 1
 1231 180 l 1
 1367 378 l 1
 1532 361 l 1
 1502 0 l 1
 625 0 l 1
 638 138 l 1
 751 217 l 1
 742 340 l 1
 463 340 l 1
 403 243 l 1
 534 150 l 1
 517 -2 l 1
 33 -2 l 1
546 473 m 1
 733 473 l 1
 714 743 l 1
 546 473 l 1
EndSplineSet
Colour: ffffff
EndChar

StartChar: agrave
Encoding: 159 224 63
Width: 1176
VWidth: 0
Flags: HMW
LayerCount: 2
Fore
SplineSet
33 0 m 1
 52 138 l 1
 153 241 l 1
 441 934 l 1
 778 999 l 1
 1055 238 l 1
 1143 145 l 1
 1131 -2 l 1
 579 -2 l 1
 595 136 l 1
 671 240 l 9
 535 682 l 25
 384 240 l 17
 483 148 l 1
 468 0 l 1
 33 0 l 1
291 342 m 9
 361 461 l 17
 692 461 l 9
 763 342 l 17
 291 342 l 9
222 1358 m 1
 572 1368 l 1
 717 1063 l 1
 483 1037 l 1
 222 1358 l 1
EndSplineSet
Colour: ffffff
EndChar

StartChar: ampersand
Encoding: 6 38 64
Width: 1141
VWidth: 0
Flags: HMW
LayerCount: 2
Fore
SplineSet
33 205 m 0
 33 494 522 497 522 760 c 0
 522 838 473 876 432 876 c 0
 400 876 372 856 372 819 c 0
 372 747 428 685 495 618 c 2
 845 264 l 2
 910 199 978 172 1061 151 c 2
 1085 145 l 1
 1054 11 l 1
 1030 0 986 -13 889 -13 c 0
 759 -13 670 79 565 186 c 2
 264 492 l 2
 185 572 140 648 140 734 c 0
 140 899 313 997 480 997 c 0
 625 997 742 919 742 808 c 0
 742 496 308 510 308 277 c 0
 308 227 338 167 416 167 c 0
 533 167 658 252 769 452 c 1
 715 519 l 1
 740 656 l 1
 1108 656 l 1
 1086 519 l 1
 948 456 l 1
 706 74 493 -18 309 -18 c 0
 128 -18 33 67 33 205 c 0
EndSplineSet
Colour: ffffff
EndChar

StartChar: aring
Encoding: 164 229 65
Width: 1176
VWidth: 0
Flags: HMW
LayerCount: 2
Fore
SplineSet
33 0 m 1
 52 138 l 1
 153 241 l 1
 441 934 l 1
 778 999 l 1
 1055 238 l 1
 1143 145 l 1
 1131 -2 l 1
 579 -2 l 1
 595 136 l 1
 671 240 l 9
 535 682 l 25
 384 240 l 17
 483 148 l 1
 468 0 l 1
 33 0 l 1
291 342 m 9
 361 461 l 17
 692 461 l 9
 763 342 l 17
 291 342 l 9
327 1196 m 0
 327 1290 409 1369 611 1369 c 0
 813 1369 896 1309 896 1205 c 0
 896 1119 815 1034 603 1034 c 0
 398 1034 327 1097 327 1196 c 0
538 1201 m 0
 538 1157 571 1144 606 1144 c 0
 638 1144 673 1163 673 1201 c 0
 673 1238 637 1260 600 1260 c 0
 570 1260 538 1235 538 1201 c 0
EndSplineSet
Colour: ffffff
EndChar

StartChar: asciicircum
Encoding: 62 94 66
Width: 740
VWidth: 0
Flags: HMW
LayerCount: 2
Fore
SplineSet
50 825 m 1
 291 1237 l 1
 435 1250 l 1
 690 823 l 1
 568 789 l 1
 352 963 l 1
 341 963 l 1
 164 796 l 1
 50 825 l 1
EndSplineSet
Colour: ffffff
EndChar

StartChar: asciitilde
Encoding: 94 126 67
Width: 1075
VWidth: 0
Flags: HMW
LayerCount: 2
Fore
SplineSet
60 282 m 1
 38 482 120 763 396 696 c 2
 738 613 l 2
 807 597 844 702 844 702 c 1
 1018 684 l 1
 1016 406 889 232 644 296 c 2
 329 378 l 2
 246 400 238 272 238 272 c 1
 60 282 l 1
EndSplineSet
Colour: ffffff
EndChar

StartChar: asterisk
Encoding: 10 42 68
Width: 828
VWidth: 0
Flags: HMW
LayerCount: 2
Fore
SplineSet
41 913 m 1
 123 1088 l 1
 356 993 l 1
 301 1300 l 1
 490 1275 l 1
 464 1005 l 1
 744 1175 l 1
 781 989 l 1
 526 906 l 1
 768 714 l 1
 597 623 l 1
 452 824 l 1
 326 548 l 1
 187 686 l 1
 358 876 l 1
 41 913 l 1
EndSplineSet
Colour: ffffff
EndChar

StartChar: at
Encoding: 32 64 69
Width: 1554
VWidth: 0
Flags: HMW
LayerCount: 2
Fore
SplineSet
53 326 m 0
 53 687 393 1043 935 1043 c 0
 1213 1043 1501 927 1501 622 c 0
 1501 327 1258 72 985 72 c 0
 898 72 774 99 777 197 c 1
 766 197 l 1
 714 122 645 86 581 86 c 0
 482 86 394 173 394 342 c 0
 394 549 554 796 915 796 c 0
 970 796 1025 790 1078 778 c 1
 1094 761 l 1
 1054 395 l 2
 1040 265 1045 243 1088 243 c 0
 1210 243 1261 476 1261 567 c 0
 1261 806 1101 895 864 894 c 0
 499 893 301 661 301 377 c 0
 301 79 465 -65 836 -65 c 0
 969 -65 1101 -54 1197 26 c 1
 1242 -84 l 1
 1127 -172 947 -221 762 -221 c 0
 315 -221 53 0 53 326 c 0
674 395 m 0
 674 314 698 294 727 294 c 0
 745 294 765 301 782 306 c 1
 826 648 l 1
 821 644 823 659 792 659 c 0
 694 659 674 442 674 395 c 0
EndSplineSet
Colour: ffffff
EndChar

StartChar: atilde
Encoding: 162 227 70
Width: 1176
VWidth: 0
Flags: HMW
LayerCount: 2
Fore
SplineSet
33 0 m 1
 52 138 l 1
 153 241 l 1
 441 934 l 1
 778 999 l 1
 1055 238 l 1
 1143 145 l 1
 1131 -2 l 1
 579 -2 l 1
 595 136 l 1
 671 240 l 9
 535 682 l 25
 384 240 l 17
 483 148 l 1
 468 0 l 1
 33 0 l 1
291 342 m 9
 361 461 l 17
 692 461 l 9
 763 342 l 17
 291 342 l 9
299 1042 m 1
 306 1316 438 1350 604 1299 c 2
 674 1277 l 2
 764 1249 806 1258 825 1327 c 1
 940 1316 l 1
 926 1059 824 1002 646 1057 c 2
 580 1077 l 2
 465 1112 439 1095 416 1031 c 1
 299 1042 l 1
EndSplineSet
Colour: ffffff
EndChar

StartChar: b
Encoding: 66 98 71
Width: 1188
VWidth: 0
Flags: HMW
LayerCount: 2
Back
SplineSet
-184 0 m 1
 -167 157 l 1
 -25 229 l 1
 -25 640 l 1
 -167 721 l 1
 -140 889 l 1
 263 918 l 1
 301 879 l 1
 278 777 l 1
 293 771 l 1
 385 867 470 928.617 582.449 928.617 c 0
 728 928.617 828 849 828 641 c 2
 828 229 l 1
 976 165 l 1
 953 0 l 1
 517 0 l 1
 517 157 l 1
 517 229 l 1
 517 429 l 2
 517 557.365 484 602.028 422.271 602.028 c 0
 376 602.028 334 588 293 552 c 1
 293 229 l 1
 416 166 l 1
 388 0 l 1
 -184 0 l 1
EndSplineSet
Fore
SplineSet
53 0 m 1
 67 138 l 1
 173 217 l 1
 173 758 l 1
 64 802 l 1
 74 961 l 1
 183 979 369 997 601 997 c 0
 936 997 1089 902 1089 741 c 0
 1089 655 1005 553 876 535 c 1
 876 525 l 1
 991 521 1135 449 1135 330 c 0
 1135 110 938 0 587 0 c 2
 53 0 l 1
545 186 m 1
 617 186 l 2
 720 186 776 224 776 298 c 0
 776 378 715 441 601 441 c 2
 545 441 l 1
 545 186 l 1
545 542 m 1
 699 542 l 1
 723 564 744 607 744 647 c 0
 744 737 710 820 609 820 c 0
 589 820 567 819 545 815 c 1
 545 542 l 1
EndSplineSet
Colour: ffffff
EndChar

StartChar: backslash
Encoding: 60 92 72
Width: 765
VWidth: 0
Flags: HMW
LayerCount: 2
Fore
SplineSet
35 1333 m 1
 270 1316 l 1
 731 -410 l 1
 504 -397 l 1
 35 1333 l 1
EndSplineSet
Colour: ffffff
EndChar

StartChar: bar
Encoding: 92 124 73
Width: 346
VWidth: 0
Flags: HMW
LayerCount: 2
Fore
SplineSet
75 -363 m 1
 75 1260 l 1
 271 1248 l 1
 271 -379 l 1
 75 -363 l 1
EndSplineSet
Colour: ffffff
EndChar

StartChar: braceleft
Encoding: 91 123 74
Width: 771
VWidth: 0
Flags: HMW
LayerCount: 2
Fore
SplineSet
684 -379 m 1
 672 -173 l 1
 548 -169 l 2
 395 -164 589 293 353 446 c 1
 353 459 l 1
 589 503 416 1046 538 1049 c 2
 671 1052 l 1
 677 1255 l 1
 437 1255 l 2
 28 1255 341 614 65 557 c 2
 7 545 l 1
 7 346 l 1
 68 333 l 2
 333 276 24 -379 439 -379 c 2
 684 -379 l 1
EndSplineSet
Colour: ffffff
EndChar

StartChar: braceright
Encoding: 93 125 75
Width: 769
VWidth: 0
Flags: HMW
LayerCount: 2
Fore
SplineSet
43 -379 m 1
 55 -173 l 1
 179 -169 l 2
 332 -164 138 293 374 446 c 1
 374 459 l 1
 138 503 311 1046 189 1049 c 2
 56 1052 l 1
 50 1255 l 1
 290 1255 l 2
 699 1255 386 614 662 557 c 2
 720 545 l 1
 720 346 l 1
 659 333 l 2
 394 276 703 -379 288 -379 c 2
 43 -379 l 1
EndSplineSet
Colour: ffffff
EndChar

StartChar: bracketleft
Encoding: 59 91 76
Width: 593
VWidth: 0
Flags: HMW
LayerCount: 2
Fore
SplineSet
511 -214 m 1
 265 -193 l 1
 265 1075 l 1
 504 1094 l 1
 474 1255 l 1
 38 1255 l 1
 34 -378 l 1
 483 -378 l 1
 511 -214 l 1
EndSplineSet
Colour: ffffff
EndChar

StartChar: bracketright
Encoding: 61 93 77
Width: 592
VWidth: 0
Flags: HMW
LayerCount: 2
Back
SplineSet
-189 -217 m 5
 -159 -378 l 5
 267 -378 l 5
 271 1255 l 5
 -169 1255 l 5
 -187 1050 l 5
 40 1034 l 5
 40 -198 l 5
 -189 -217 l 5
EndSplineSet
Fore
SplineSet
41 -214 m 1
 287 -193 l 1
 287 1075 l 1
 48 1094 l 1
 78 1255 l 1
 514 1255 l 1
 518 -378 l 1
 69 -378 l 1
 41 -214 l 1
EndSplineSet
Colour: ffffff
EndChar

StartChar: brokenbar
Encoding: 101 166 78
Width: 366
VWidth: 0
Flags: HMW
LayerCount: 2
Fore
SplineSet
74 -351 m 1
 74 415 l 5
 293 387 l 5
 293 -379 l 1
 74 -351 l 1
74 528 m 5
 74 1274 l 1
 290 1248 l 1
 292 505 l 5
 74 528 l 5
EndSplineSet
Colour: ffffff
EndChar

StartChar: c
Encoding: 67 99 79
Width: 1020
VWidth: 0
Flags: HMW
LayerCount: 2
Back
SplineSet
0 426 m 0
 0 777 298 967 538 967 c 0
 743 967 833 852 833 714 c 0
 833 598 749 532 641 520 c 1
 568 735 517 764 446 764 c 0
 364 764 333 685 333 515 c 0
 333 359 416 200 573 200 c 0
 683 200 740 225 817 271 c 1
 857 167 l 1
 806 59 653 -31 482 -31 c 0
 128 -31 0 153 0 426 c 0
EndSplineSet
Fore
SplineSet
55 439 m 4
 55 722 218 997 630 997 c 4
 726 997 865 970 922 928 c 5
 891 554 l 5
 721 577 l 5
 657 769 l 5
 631 786 600 792 577 792 c 4
 490 792 447 690 447 532 c 4
 447 326 556 205 702 205 c 4
 794 205 856 230 908 263 c 5
 967 128 l 5
 907 52 757 -29 573 -29 c 4
 218 -29 55 148 55 439 c 4
EndSplineSet
Colour: ffffff
EndChar

StartChar: ccedilla
Encoding: 166 231 80
Width: 980
VWidth: 0
Flags: HMW
LayerCount: 2
Fore
SplineSet
35 439 m 0
 35 722 198 997 610 997 c 0
 706 997 845 970 902 928 c 1
 871 554 l 1
 701 577 l 1
 637 769 l 1
 611 786 580 792 557 792 c 0
 470 792 427 690 427 532 c 0
 427 326 536 205 682 205 c 0
 774 205 836 230 888 263 c 1
 947 128 l 1
 887 52 737 -29 553 -29 c 0
 198 -29 35 148 35 439 c 0
364 -303 m 1
 444 -302 501 -269 501 -239 c 0
 501 -200 398 -165 345 -147 c 1
 533 0 l 1
 707 0 l 1
 589 -86 l 1
 695 -95 764 -139 764 -229 c 0
 764 -338 671 -391 400 -391 c 1
 364 -303 l 1
EndSplineSet
Colour: ffffff
EndChar

StartChar: cedilla
Encoding: 119 184 81
Width: 529
VWidth: 0
Flags: HMW
LayerCount: 2
Fore
SplineSet
72 -300 m 1
 152 -299 209 -266 209 -236 c 0
 209 -197 106 -162 53 -144 c 1
 241 3 l 1
 415 3 l 1
 297 -83 l 1
 403 -92 472 -136 472 -226 c 0
 472 -335 379 -388 108 -388 c 1
 72 -300 l 1
EndSplineSet
Colour: ffffff
EndChar

StartChar: cent
Encoding: 97 162 82
Width: 963
VWidth: 0
Flags: HMW
LayerCount: 2
Fore
SplineSet
53 452 m 0
 53 803 351 1012 591 1012 c 0
 796 1012 886 868 886 730 c 0
 886 614 802 548 694 536 c 1
 621 751 570 810 499 810 c 0
 417 810 386 701 386 531 c 0
 386 375 469 230 626 230 c 0
 736 230 803 265 880 311 c 1
 920 177 l 1
 869 69 706 -31 535 -31 c 0
 181 -31 53 179 53 452 c 0
399 1232 m 1
 626 1249 l 1
 601 981 l 1
 430 981 l 1
 399 1232 l 1
409 -266 m 1
 435 0 l 1
 605 0 l 1
 638 -250 l 1
 409 -266 l 1
EndSplineSet
Colour: ffffff
EndChar

StartChar: circumflex
Encoding: 191 710 83
Width: 692
VWidth: 0
Flags: HMW
LayerCount: 2
Fore
SplineSet
30 1325 m 1
 183 1580 l 1
 508 1580 l 1
 662 1325 l 1
 409 1316 l 1
 345 1437 l 1
 331 1437 l 1
 263 1315 l 1
 30 1325 l 1
EndSplineSet
Colour: ffffff
EndChar

StartChar: colon
Encoding: 26 58 84
Width: 503
VWidth: 0
Flags: HMW
LayerCount: 2
Fore
SplineSet
114 143.65 m 0
 114 205.4 155.4 289 302.1 289 c 0
 457.8 289 498.3 207.3 498.3 146.5 c 0
 498.3 65.75 452.4 -1.7002 301.2 -1.7002 c 0
 144.6 -1.7002 114 74.2998 114 143.65 c 0
114 758.65 m 0
 114 820.4 155.4 904 302.1 904 c 0
 457.8 904 498.3 822.3 498.3 761.5 c 0
 498.3 680.75 452.4 613.3 301.2 613.3 c 0
 144.6 613.3 114 689.3 114 758.65 c 0
EndSplineSet
Colour: ffffff
EndChar

StartChar: comma
Encoding: 12 44 85
Width: 564
VWidth: 0
Flags: HMW
LayerCount: 2
Back
SplineSet
0 127 m 0
 0 192 46 280 209 280 c 0
 382 280 427 194 427 130 c 0
 427 45 376 -26 208 -26 c 0
 34 -26 0 54 0 127 c 0
EndSplineSet
Fore
SplineSet
61 96 m 0
 60 216 147 278 263 278 c 0
 443 278 506 166 506 12 c 0
 506 -152 386 -338 112 -377 c 1
 68 -259 l 5
 184 -221 233 -142 233 -80 c 0
 233 -23 194 10 146 10 c 0
 129 10 110 6 92 -3 c 1
 71 32 61 60 61 96 c 0
EndSplineSet
Colour: ffffff
EndChar

StartChar: copyright
Encoding: 104 169 86
Width: 1507
VWidth: 0
Flags: HMW
LayerCount: 2
Fore
SplineSet
49 687 m 4
 49 1131 363 1397 766 1397 c 4
 1196 1397 1458 1116 1458 700 c 4
 1458 345 1155 10 757 10 c 4
 309 10 49 275 49 687 c 4
255 708 m 4
 255 345 473 170 763 170 c 4
 1039 170 1267 349 1267 690 c 4
 1267 976 1112 1244 752 1244 c 4
 432 1244 255 1023 255 708 c 4
382 678 m 4
 382 972 629 1131 830 1131 c 4
 974 1131 1071 1043 1071 927 c 4
 1071 830 992 792 902 782 c 5
 852 937 813 971 766 971 c 4
 693 971 661 911 661 752 c 4
 661 621 730 488 861 488 c 4
 953 488 1002 509 1066 548 c 5
 1099 461 l 5
 1056 371 928 295 785 295 c 4
 489 295 382 449 382 678 c 4
EndSplineSet
Colour: ffffff
EndChar

StartChar: currency
Encoding: 99 164 87
Width: 947
VWidth: 0
Flags: HMW
LayerCount: 2
Fore
SplineSet
43 733 m 1
 209 886 l 1
 348 741 l 1
 380 769 431 784 481 784 c 0
 523 784 564 773 592 752 c 1
 733 891 l 1
 898 732 l 1
 749 595 l 1
 765 566 773 527 773 488 c 0
 773 447 764 405 744 372 c 1
 903 221 l 1
 727 71 l 1
 582 226 l 1
 543 203 503 190 462 190 c 0
 429 190 395 199 363 218 c 1
 217 54 l 1
 52 212 l 1
 207 362 l 1
 184 395 172 439 172 484 c 0
 172 521 181 559 199 589 c 1
 43 733 l 1
364 491 m 0
 364 416 416 364 471 364 c 0
 528 364 577 411 577 485 c 0
 577 563 529 610 472 610 c 0
 417 610 364 564 364 491 c 0
EndSplineSet
Colour: ffffff
EndChar

StartChar: d
Encoding: 68 100 88
Width: 1224
VWidth: 0
Flags: HMW
LayerCount: 2
Back
SplineSet
24 188 m 0
 24 366 186 514 482 512 c 1
 482 607 l 2
 482 700 416.126 746.405 367.311 746.405 c 0
 310 746.405 286 698 263 568 c 1
 174 554 58 596 58 713 c 0
 58 846 362 948 505 948 c 0
 730 948 790 853 790 641 c 2
 790 374 l 6
 790 271 819.366 247.918 928 213 c 6
 956 204 l 5
 931 34 l 5
 855.861 -1.23438 793 -23.877 694.626 -23.877 c 4
 586.096 -23.877 523.953 25.5205 493 106 c 6
 488 119 l 5
 475 125 l 5
 445.271 44.8848 330.999 -22.6348 224.929 -22.6348 c 0
 120.488 -22.6348 24 43.1309 24 188 c 0
482 234 m 1
 482 398 l 1
 358 384 319.793 322.834 319.793 279.474 c 0
 319.793 239.258 349.213 205.522 400.331 205.522 c 0
 425.794 205.522 454.158 213.893 482 234 c 1
EndSplineSet
Fore
SplineSet
53 0 m 5
 66 158 l 5
 186 241 l 5
 186 742 l 5
 73 788 l 5
 80 945 l 5
 188 970 410 997 593 997 c 4
 1019 997 1169 781 1169 520 c 4
 1169 219 950 0 581 0 c 6
 53 0 l 5
556 202 m 5
 591 202 l 6
 782 202 803 393 803 497 c 4
 803 624 740 796 574 796 c 4
 567 796 561 796 556 795 c 5
 556 202 l 5
EndSplineSet
Colour: ffffff
EndChar

StartChar: dagger
Encoding: 203 8224 89
Width: 903
VWidth: 0
Flags: HMW
LayerCount: 2
Fore
SplineSet
47 666 m 1
 54 860 l 1
 349 853 l 1
 345 1255 l 1
 557 1244 l 1
 550 853 l 1
 856 860 l 1
 847 657 l 1
 550 667 l 1
 563 -362 l 1
 339 -351 l 1
 349 671 l 1
 47 666 l 1
EndSplineSet
Colour: ffffff
EndChar

StartChar: daggerdbl
Encoding: 204 8225 90
Width: 908
VWidth: 0
Flags: HMW
LayerCount: 2
Fore
SplineSet
55 666 m 1
 59 862 l 1
 353 856 l 1
 345 1255 l 1
 559 1244 l 1
 544 856 l 1
 848 862 l 1
 843 660 l 1
 544 669 l 1
 533 430 l 1
 537 212 l 1
 855 217 l 1
 848 19 l 1
 537 26 l 1
 551 -362 l 1
 336 -351 l 1
 346 26 l 1
 56 19 l 1
 67 224 l 1
 346 210 l 1
 356 497 l 1
 353 674 l 1
 55 666 l 1
EndSplineSet
Colour: ffffff
EndChar

StartChar: degree
Encoding: 111 176 91
Width: 505
VWidth: 0
Flags: HMW
LayerCount: 2
Fore
SplineSet
55 1107 m 0
 55 1210 150 1304 258 1304 c 0
 374 1304 449 1237 449 1128 c 0
 449 1013 340 928 234 928 c 0
 132 928 55 990 55 1107 c 0
186 1129 m 0
 186 1074 201 1023 252 1023 c 0
 288 1023 307 1059 307 1105 c 0
 307 1161 285 1209 242 1209 c 0
 207 1209 186 1173 186 1129 c 0
EndSplineSet
Colour: ffffff
EndChar

StartChar: dieresis
Encoding: 103 168 92
Width: 744
VWidth: 0
Flags: HMW
LayerCount: 2
Back
SplineSet
0 1464 m 4
 0 1504 102 1541 146 1541 c 4
 203 1541 288 1500 288 1464 c 4
 288 1423 191 1383 143 1383 c 4
 97 1383 0 1418 0 1464 c 4
269 1464 m 4
 269 1504 368 1541 412 1541 c 4
 469 1541 558 1500 558 1464 c 4
 558 1423 459 1383 411 1383 c 4
 365 1383 269 1418 269 1464 c 4
EndSplineSet
Fore
SplineSet
115.6 1464.9 m 0
 115.6 1510.4 145.96 1572 253.54 1572 c 0
 367.72 1572 397.42 1511.8 397.42 1467 c 0
 397.42 1407.5 363.76 1357.8 252.88 1357.8 c 0
 138.04 1357.8 115.6 1413.8 115.6 1464.9 c 0
424.6 1464.9 m 0
 424.6 1510.4 454.96 1572 562.54 1572 c 0
 676.72 1572 706.42 1511.8 706.42 1467 c 0
 706.42 1407.5 672.76 1357.8 561.88 1357.8 c 0
 447.04 1357.8 424.6 1413.8 424.6 1464.9 c 0
EndSplineSet
Colour: ffffff
EndChar

StartChar: divide
Encoding: 182 247 93
Width: 910
VWidth: 0
Flags: HMW
LayerCount: 2
Fore
SplineSet
45 411 m 1
 57 597 l 1
 868 597 l 1
 859 411 l 1
 45 411 l 1
236 218 m 0
 236 283 282 371 445 371 c 0
 618 371 663 285 663 221 c 0
 663 136 612 65 444 65 c 0
 270 65 236 145 236 218 c 0
236 781 m 0
 236 846 282 934 445 934 c 0
 618 934 663 848 663 784 c 0
 663 699 612 628 444 628 c 0
 270 628 236 708 236 781 c 0
EndSplineSet
Colour: ffffff
EndChar

StartChar: dollar
Encoding: 4 36 94
Width: 844
VWidth: 0
Flags: HMW
LayerCount: 2
Fore
SplineSet
31 167 m 0
 31 264 103 318 223 328 c 1
 261 194 329 124 406 124 c 0
 484 124 515 137 515 186 c 0
 515 300 65 336 65 634 c 0
 65 746 157 948 462 948 c 0
 662 948 795 885 795 773 c 0
 795 684 702 621 604 611 c 1
 573 738 518.372 799 419 799 c 0
 365 799 334 770 334 732 c 0
 334 612 810 576 810 272 c 0
 810 71 625 -36 379 -36 c 0
 214 -36 31 42 31 167 c 0
342 -196 m 1
 367 -15 l 1
 505 -6 l 1
 529 -178 l 1
 342 -196 l 1
344 1068 m 1
 534 1085 l 1
 505 907 l 1
 373 907 l 1
 344 1068 l 1
EndSplineSet
Colour: ffffff
EndChar

StartChar: dotaccent
Encoding: 192 729 95
Width: 579
VWidth: 0
Flags: HMW
LayerCount: 2
Fore
SplineSet
76 1473 m 4
 76 1538 122 1626 285 1626 c 4
 458 1626 503 1540 503 1476 c 4
 503 1391 452 1320 284 1320 c 4
 110 1320 76 1400 76 1473 c 4
EndSplineSet
Colour: ffffff
EndChar

StartChar: e
Encoding: 69 101 96
Width: 1119
VWidth: 0
Flags: HMW
LayerCount: 2
Fore
SplineSet
53 835 m 5
 72 979 l 5
 1065 979 l 5
 1035 611 l 5
 864 637 l 5
 781 807 l 5
 556 807 l 5
 556 559 l 5
 681 575 l 5
 708 578 l 5
 845 596 l 5
 812 390 l 5
 699 406 l 5
 669 411 l 5
 556 427 l 5
 556 203 l 5
 759 180 l 5
 895 378 l 5
 1060 361 l 5
 1030 0 l 5
 69 0 l 5
 79 158 l 5
 183 217 l 5
 183 765 l 5
 53 835 l 5
EndSplineSet
Colour: ffffff
EndChar

StartChar: eacute
Encoding: 168 233 97
Width: 1079
VWidth: 0
Flags: HMW
LayerCount: 2
Fore
SplineSet
33 835 m 1
 52 979 l 1
 1045 979 l 5
 1015 611 l 5
 844 637 l 5
 761 807 l 5
 536 807 l 5
 536 559 l 5
 661 575 l 5
 688 578 l 5
 825 596 l 5
 792 390 l 5
 679 406 l 5
 649 411 l 5
 536 427 l 5
 536 203 l 5
 739 180 l 5
 875 378 l 5
 1040 361 l 5
 1010 0 l 5
 49 0 l 1
 59 158 l 1
 163 217 l 1
 163 765 l 1
 33 835 l 1
379 1063 m 5
 524 1368 l 5
 874 1358 l 5
 613 1037 l 5
 379 1063 l 5
EndSplineSet
Colour: ffffff
EndChar

StartChar: ecircumflex
Encoding: 169 234 98
Width: 1079
VWidth: 0
Flags: HMW
LayerCount: 2
Fore
SplineSet
33 835 m 1
 52 979 l 1
 1045 979 l 5
 1015 611 l 5
 844 637 l 5
 761 807 l 5
 536 807 l 5
 536 559 l 5
 661 575 l 5
 688 578 l 5
 825 596 l 5
 792 390 l 5
 679 406 l 5
 649 411 l 5
 536 427 l 5
 536 203 l 5
 739 180 l 5
 875 378 l 5
 1040 361 l 5
 1010 0 l 5
 49 0 l 1
 59 158 l 1
 163 217 l 1
 163 765 l 1
 33 835 l 1
252 1044 m 1
 405 1299 l 1
 730 1299 l 1
 884 1044 l 1
 631 1035 l 1
 567 1156 l 1
 553 1156 l 1
 485 1034 l 1
 252 1044 l 1
EndSplineSet
Colour: ffffff
EndChar

StartChar: edieresis
Encoding: 170 235 99
Width: 1079
VWidth: 0
Flags: HMW
LayerCount: 2
Fore
SplineSet
33 835 m 1
 52 979 l 1
 1045 979 l 5
 1015 611 l 5
 844 637 l 5
 761 807 l 5
 536 807 l 5
 536 559 l 5
 661 575 l 5
 688 578 l 5
 825 596 l 5
 792 390 l 5
 679 406 l 5
 649 411 l 5
 536 427 l 5
 536 203 l 5
 739 180 l 5
 875 378 l 5
 1040 361 l 5
 1010 0 l 5
 49 0 l 1
 59 158 l 1
 163 217 l 1
 163 765 l 1
 33 835 l 1
279 1148 m 0
 279 1194 309 1255 417 1255 c 0
 531 1255 560 1195 560 1150 c 0
 560 1090 527 1041 416 1041 c 0
 301 1041 279 1097 279 1148 c 0
588 1148 m 0
 588 1194 618 1255 726 1255 c 0
 840 1255 869 1195 869 1150 c 0
 869 1090 836 1041 725 1041 c 0
 610 1041 588 1097 588 1148 c 0
EndSplineSet
Colour: ffffff
EndChar

StartChar: egrave
Encoding: 167 232 100
Width: 1079
VWidth: 0
Flags: HMW
LayerCount: 2
Fore
SplineSet
33 835 m 1
 52 979 l 1
 1045 979 l 1
 1015 611 l 1
 844 637 l 1
 761 807 l 1
 536 807 l 1
 536 559 l 1
 661 575 l 1
 688 578 l 1
 825 596 l 1
 792 390 l 1
 679 406 l 1
 649 411 l 1
 536 427 l 1
 536 203 l 1
 739 180 l 1
 875 378 l 1
 1040 361 l 1
 1010 0 l 1
 49 0 l 1
 59 158 l 1
 163 217 l 1
 163 765 l 1
 33 835 l 1
212 1358 m 1
 562 1368 l 1
 707 1063 l 1
 473 1037 l 1
 212 1358 l 1
EndSplineSet
Colour: ffffff
EndChar

StartChar: eight
Encoding: 24 56 101
Width: 1053
VWidth: 0
Flags: HMW
LayerCount: 2
Fore
SplineSet
48 270 m 0
 48 391 117 495 272 558 c 1
 272 573 l 1
 164 659 103 754 103 863 c 0
 103 1032 246 1199 563 1199 c 0
 802 1199 946 1064 946 925 c 0
 946 834 873 738 753 681 c 1
 754 665 l 1
 936 546 1007 448 1007 331 c 0
 1007 140 800 -27 495 -27 c 0
 190 -27 48 120 48 270 c 0
400 347 m 0
 400 224 452 115 576 115 c 0
 633 115 674 157 674 193 c 0
 674 272 567 325 414 454 c 1
 392 418 400 389 400 347 c 0
458 986 m 0
 458 926 513 828 608 769 c 1
 642 792 647 830 647 874 c 0
 647 999 576 1063 521 1063 c 0
 486 1063 458 1037 458 986 c 0
EndSplineSet
Colour: ffffff
EndChar

StartChar: emdash
Encoding: 197 8212 102
Width: 1513
VWidth: 0
Flags: HMW
LayerCount: 2
Fore
SplineSet
61 367 m 1
 82 554 l 1
 1452 562 l 1
 1426 372 l 1
 61 367 l 1
EndSplineSet
Colour: ffffff
EndChar

StartChar: endash
Encoding: 196 8211 103
Width: 880
VWidth: 0
Flags: HMW
LayerCount: 2
Fore
SplineSet
61 367 m 1
 84 554 l 1
 819 562 l 5
 790 372 l 5
 61 367 l 1
EndSplineSet
Colour: ffffff
EndChar

StartChar: equal
Encoding: 29 61 104
Width: 768
VWidth: 0
Flags: HMW
LayerCount: 2
Fore
SplineSet
65 557 m 1
 76 745 l 1
 701 745 l 1
 688 557 l 1
 65 557 l 1
68 276 m 1
 79 464 l 1
 704 464 l 1
 691 276 l 1
 68 276 l 1
EndSplineSet
Colour: ffffff
EndChar

StartChar: eth
Encoding: 175 240 105
Width: 1183
VWidth: 0
Flags: HMW
LayerCount: 2
Back
SplineSet
0 451 m 0x9c
 0 745 300 947 514 947 c 0
 399 947 474 1082 505 1006 c 1
 510 1012 l 1
 505 985 490 979 487 1015 c 1xac
 336 997 l 1
 345 1119 l 1
 441 1136 l 1
 431 1174 404 1233 326 1302 c 1
 542 1302 l 1
 527 1318 588 1284 668 1199 c 1
 795 1219 l 1
 784 1090 l 1
 754 1084 l 1
 828 978 944 779 944 464 c 0
 944 157 685 -27 471 -27 c 0
 125 -27 0 207 0 451 c 0x9c
334 497 m 1
 344 309 378 153 492 153 c 0
 646 153 626 209 626 423 c 0
 626 493 578 773 501 783 c 1
 488 783 l 1xcc
 375 789 334 740 334 497 c 1
EndSplineSet
Fore
SplineSet
34 0 m 1
 47 158 l 1
 167 241 l 9
 167 742 l 17
 54 788 l 1
 61 945 l 1
 169 970 391 997 574 997 c 0
 1000 997 1150 781 1150 520 c 0
 1150 219 931 0 562 0 c 2
 34 0 l 1
42 364 m 17
 57 547 l 9
 679 594 l 17
 669 445 l 9
 42 364 l 17
537 202 m 17
 572 202 l 2
 763 202 784 393 784 497 c 0
 784 624 721 796 555 796 c 0
 548 796 542 796 537 795 c 9
 537 202 l 17
EndSplineSet
Colour: ffffff
EndChar

StartChar: exclam
Encoding: 1 33 106
Width: 518
VWidth: 0
Flags: HMW
LayerCount: 2
Back
SplineSet
10 1094 m 5
 30 1244 l 5
 757 1244 l 5
 741 1084 l 5
 562 1017 l 5
 562 223 l 5
 742 160 l 5
 729 0 l 5
 12 0 l 5
 22 142 l 5
 198 221 l 5
 198 1020 l 5
 10 1094 l 5
EndSplineSet
Fore
SplineSet
47 127 m 0
 47 192 93 280 256 280 c 0
 429 280 474 194 474 130 c 0
 474 45 423 -26 255 -26 c 0
 81 -26 47 54 47 127 c 0
66 1194 m 0
 66 1260 117 1306 272 1306 c 0
 376 1306 426 1287 426 1215 c 0
 426 978 382 597 347 362 c 1
 180 391 l 1
 135 628 66 1094 66 1194 c 0
EndSplineSet
Colour: ffffff
EndChar

StartChar: exclamdown
Encoding: 96 161 107
Width: 521
VWidth: 0
Flags: HMW
LayerCount: 2
Fore
SplineSet
426 773 m 0
 426 708 380 620 217 620 c 0
 44 620 -1 706 -1 770 c 0
 -1 855 50 926 218 926 c 0
 392 926 426 846 426 773 c 0
407 -294 m 0
 407 -360 356 -406 201 -406 c 0
 97 -406 47 -387 47 -315 c 0
 47 -78 91 303 126 538 c 1
 293 509 l 1
 338 272 407 -194 407 -294 c 0
EndSplineSet
Colour: ffffff
EndChar

StartChar: f
Encoding: 70 102 108
Width: 1123
VWidth: 0
Flags: HMW
LayerCount: 2
Back
SplineSet
790.311 602.595 m 4
 790.311 780.595 628.311 928.595 332.311 926.595 c 5
 332.311 1021.59 l 6
 332.311 1114.59 398.185 1161 447 1161 c 4
 504.311 1161 528.311 1112.59 551.311 982.595 c 5
 640.311 968.595 756.311 1010.59 756.311 1127.59 c 4
 756.311 1260.59 452.311 1362.59 309.311 1362.59 c 4
 84.3105 1362.59 24.3105 1267.59 24.3105 1055.59 c 6
 24.3105 788.595 l 6
 24.3105 685.595 -5.05566 662.513 -113.689 627.595 c 6
 -141.689 618.595 l 5
 -116.689 448.595 l 5
 -41.5508 413.36 21.3105 390.718 119.685 390.718 c 4
 228.215 390.718 290.357 440.115 321.311 520.595 c 6
 326.311 533.595 l 5
 339.311 539.595 l 5
 369.039 459.479 483.312 391.96 589.382 391.96 c 4
 693.822 391.96 790.311 457.726 790.311 602.595 c 4
332.311 648.595 m 5
 332.311 812.595 l 5
 456.311 798.595 494.518 737.429 494.518 694.068 c 4
 494.518 653.853 465.098 620.117 413.979 620.117 c 4
 388.517 620.117 360.152 628.487 332.311 648.595 c 5
-186 0 m 1
 -171 176 l 1
 -19 230 l 1
 -19 966 l 1
 -186 1068 l 1
 -152 1241 l 1
 239 1266 l 1
 296 1209 l 1
 296 230 l 1
 452 174 l 1
 439 0 l 1
 -186 0 l 1
EndSplineSet
Fore
SplineSet
53 835 m 1
 72 979 l 1
 1070 979 l 1
 1011 599 l 1
 834 626 l 1
 784 807 l 1
 558 807 l 1
 558 517 l 1
 681 535 l 1
 702 538 l 1
 847 559 l 1
 814 333 l 1
 684 354 l 1
 660 358 l 1
 558 375 l 1
 558 227 l 1
 723 163 l 1
 707 0 l 1
 68 0 l 1
 84 138 l 1
 186 217 l 1
 186 765 l 1
 53 835 l 1
EndSplineSet
Colour: ffffff
EndChar

StartChar: five
Encoding: 21 53 109
Width: 958
VWidth: 0
Flags: HMW
LayerCount: 2
Fore
SplineSet
27 -108 m 0
 27 4 109 72 231 96 c 1
 252 -2 301 -159 468 -159 c 0
 574 -159 625 -73 625 5 c 0
 625 144 452 267 161 292 c 1
 321 980 l 1
 883 1017 l 1
 842 700 l 1
 385 697 l 1
 367 568 l 1
 736 530 908 337 908 138 c 0
 908 -89 733 -308 379 -308 c 0
 176 -308 27 -214 27 -108 c 0
EndSplineSet
Colour: ffffff
EndChar

StartChar: four
Encoding: 20 52 110
Width: 1187
VWidth: 0
Flags: HMW
LayerCount: 2
Fore
SplineSet
45 181 m 1
 743 1022 l 1
 899 988 l 1
 893 868 890 527 890 346 c 2
 890 185 l 1
 1142 185 l 1
 1122 8 l 1
 895 8 l 1
 895 -279 l 1
 552 -324 l 1
 552 13 l 1
 84 13 l 1
 45 181 l 1
328 185 m 1
 556 185 l 1
 556 567 l 1
 328 185 l 1
EndSplineSet
Colour: ffffff
EndChar

StartChar: g
Encoding: 71 103 111
Width: 1198
VWidth: 0
Flags: HMW
LayerCount: 2
Back
SplineSet
0 -149 m 0xfa
 0 -97 54 -18 158 5 c 1
 158 22 l 1
 93 54 64 103 64 154 c 0
 64 240 145 331 263 352 c 1
 260 370 l 1
 145 430 93 526 93 623 c 0
 93 783 235 944 472 944 c 0
 637 944 710 904 751 881 c 1
 987 913 l 1
 1017 879 l 1
 972 686 l 1
 938 682 l 1
 848 710 l 1
 843 705 l 1
 845 688 846 671 846 655 c 0xfc
 846 446 676 333 480 333 c 0
 458 333 437 335 416 338 c 1
 392 272 426 249 544 244 c 2
 620 241 l 2
 847 232 960 168 960 -4 c 0
 960 -184 754 -385 386 -385 c 0
 250 -385 0 -345 0 -149 c 0xfa
295 3 m 1
 250 -120 292 -207 469 -207 c 0
 580 -207 649 -177 649 -103 c 0xfa
 649 -33 606 -6 512 -3 c 2
 295 3 l 1
371 645 m 0
 371 467 494 464 463 464 c 0
 553 464 568 497 568 638 c 0xfc
 568 653 553 814 450 814 c 0
 411 814 371 777 371 645 c 0
EndSplineSet
Fore
SplineSet
55 450 m 0
 55 805 373 997 681 997 c 0
 892 997 994 976 1062 961 c 1
 1021 652 l 1
 833 667 l 1
 742 795 l 1
 718 805 688 813 634 813 c 0
 525 813 460 735 460 534 c 0
 460 310 536 195 656 195 c 0
 708 195 742 200 769 225 c 1
 769 313 l 1
 608 377 l 1
 625 509 l 1
 1145 509 l 1
 1130 363 l 1
 1065 321 l 1
 1065 63 l 1
 996 22 786 -24 660 -24 c 0
 257 -24 55 141 55 450 c 0
EndSplineSet
Colour: ffffff
EndChar

StartChar: germandbls
Encoding: 158 223 112
Width: 1424
VWidth: 0
Flags: HMW
LayerCount: 2
Back
SplineSet
0 0 m 1
 12 158 l 1
 165 230 l 1
 165 704 l 1
 26 704 l 1
 31 832 l 1
 167 855 l 1
 186 1043 455 1312 710 1312 c 0
 918 1312 962 1154 962 1052 c 1
 962 783 755 849 755 687 c 0
 755 593 1258 648 1258 262 c 0
 1258 114 1064 -21 912 -21 c 0
 660 -21 568 62 568 77 c 0
 568 221 655 303 802 299 c 1
 844 257 988 170 944 170 c 0
 954 170 1000 76 1000 191 c 0
 1000 272 525 269 525 594 c 0
 525 772 692 814 692 929 c 1
 692 1041 712 1112 590 1112 c 0
 535 1112 463 1125 463 766 c 2
 465 0 l 1
 0 0 l 1
EndSplineSet
Fore
SplineSet
32 0 m 1
 45 136 l 1
 139 192 l 5
 139 547 l 2
 139 861 420 997 786 997 c 0
 1190 997 1345 933 1345 780 c 0
 1345 697 1303 633 1195 603 c 1
 1122 737 1048 813 977 813 c 0
 929 813 898 783 898 741 c 0
 898 595 1392 545 1392 282 c 0
 1392 27 1104 -23 955 -23 c 0
 756 -23 611 5 564 42 c 1
 601 359 l 1
 778 330 l 1
 817 175 l 1
 839 156 892 146 937 146 c 0
 1008 146 1051 161 1051 208 c 0
 1051 307 573 373 573 642 c 0
 573 752 644 818 696 829 c 1
 696 839 l 1
 565 849 499 777 499 570 c 2
 499 0 l 1
 32 0 l 1
EndSplineSet
AlternateSubs2: "Alternate Substitution in Latin lookup 0-1" germandbls.alt
Colour: ffffff
EndChar

StartChar: grave
Encoding: 64 96 113
Width: 584
VWidth: 0
Flags: HMW
LayerCount: 2
Fore
SplineSet
45 1628 m 1
 395 1638 l 1
 540 1333 l 1
 306 1307 l 1
 45 1628 l 1
EndSplineSet
Colour: ffffff
EndChar

StartChar: greater
Encoding: 30 62 114
Width: 877
VWidth: 0
Flags: HMW
LayerCount: 2
Fore
SplineSet
42 36 m 1
 390 454 l 1
 54 840 l 1
 201 974 l 1
 830 504 l 1
 820 410 l 1
 188 -84 l 1
 42 36 l 1
EndSplineSet
Colour: ffffff
EndChar

StartChar: guillemotleft
Encoding: 106 171 115
Width: 767
VWidth: 0
Flags: HMW
LayerCount: 2
Fore
SplineSet
356 447 m 1
 359 469 l 1
 626 818 l 1
 700 712 l 1
 585 460 l 1
 713 192 l 1
 619 75 l 1
 356 447 l 1
46 447 m 1
 49 469 l 1
 316 818 l 1
 390 712 l 1
 275 460 l 1
 403 192 l 1
 309 75 l 1
 46 447 l 1
EndSplineSet
Colour: ffffff
EndChar

StartChar: guillemotright
Encoding: 122 187 116
Width: 767
VWidth: 0
Flags: HMW
LayerCount: 2
Fore
SplineSet
412 447 m 1
 409 469 l 1
 142 818 l 1
 68 712 l 1
 183 460 l 1
 55 192 l 1
 149 75 l 1
 412 447 l 1
722 447 m 1
 719 469 l 1
 452 818 l 1
 378 712 l 1
 493 460 l 1
 365 192 l 1
 459 75 l 1
 722 447 l 1
EndSplineSet
Colour: ffffff
EndChar

StartChar: guilsinglleft
Encoding: 205 8249 117
Width: 457
VWidth: 0
Flags: HMW
LayerCount: 2
Fore
SplineSet
49 447 m 1
 52 469 l 1
 319 818 l 1
 393 712 l 1
 278 460 l 1
 406 192 l 1
 312 75 l 1
 49 447 l 1
EndSplineSet
Colour: ffffff
EndChar

StartChar: guilsinglright
Encoding: 206 8250 118
Width: 457
VWidth: 0
Flags: HMW
LayerCount: 2
Fore
SplineSet
360 447 m 1
 357 469 l 1
 90 818 l 1
 16 712 l 1
 131 460 l 1
 3 192 l 1
 97 75 l 1
 360 447 l 1
EndSplineSet
Colour: ffffff
EndChar

StartChar: h
Encoding: 72 104 119
Width: 1346
VWidth: 0
Flags: HMW
LayerCount: 2
Fore
SplineSet
53 829 m 1
 78 979 l 1
 620 979 l 1
 601 821 l 1
 552 762 l 1
 552 587 l 1
 789 587 l 1
 789 755 l 1
 738 819 l 1
 755 979 l 1
 1293 979 l 1
 1274 829 l 1
 1166 762 l 1
 1166 211 l 1
 1285 148 l 1
 1271 0 l 1
 718 0 l 1
 732 146 l 1
 789 217 l 1
 789 386 l 1
 552 386 l 1
 552 211 l 1
 613 148 l 1
 595 0 l 1
 58 0 l 1
 70 138 l 1
 179 217 l 1
 179 755 l 1
 53 829 l 1
EndSplineSet
Colour: ffffff
EndChar

StartChar: hyphen
Encoding: 13 45 120
Width: 717
VWidth: 0
Flags: HMW
LayerCount: 2
Fore
SplineSet
61 357 m 5
 76 535 l 5
 656 557 l 5
 641 372 l 5
 61 357 l 5
EndSplineSet
Colour: ffffff
EndChar

StartChar: i
Encoding: 73 105 121
Width: 733
VWidth: 0
Flags: HMW
LayerCount: 2
Fore
SplineSet
53 829 m 5
 73 979 l 5
 680 979 l 5
 664 819 l 5
 545 752 l 5
 545 223 l 5
 665 160 l 5
 652 0 l 5
 55 0 l 5
 65 142 l 5
 181 221 l 5
 181 755 l 5
 53 829 l 5
EndSplineSet
Colour: ffffff
EndChar

StartChar: iacute
Encoding: 172 237 122
Width: 693
VWidth: 0
Flags: HMW
LayerCount: 2
Fore
SplineSet
33 829 m 5
 53 979 l 5
 660 979 l 5
 644 819 l 5
 525 752 l 5
 525 223 l 5
 645 160 l 5
 632 0 l 5
 35 0 l 5
 45 142 l 5
 161 221 l 5
 161 755 l 5
 33 829 l 5
202 1065 m 5
 348 1370 l 5
 698 1360 l 5
 436 1039 l 5
 202 1065 l 5
EndSplineSet
Colour: ffffff
EndChar

StartChar: icircumflex
Encoding: 173 238 123
Width: 693
VWidth: 0
Flags: HMW
LayerCount: 2
Fore
SplineSet
33 829 m 5
 53 979 l 5
 660 979 l 5
 644 819 l 5
 525 752 l 5
 525 223 l 5
 645 160 l 5
 632 0 l 5
 35 0 l 5
 45 142 l 5
 161 221 l 5
 161 755 l 5
 33 829 l 5
38 1051 m 1
 192 1306 l 1
 516 1306 l 1
 670 1051 l 1
 418 1042 l 1
 354 1163 l 1
 340 1163 l 1
 272 1041 l 1
 38 1051 l 1
EndSplineSet
Colour: ffffff
EndChar

StartChar: idieresis
Encoding: 174 239 124
Width: 693
VWidth: 0
Flags: HMW
LayerCount: 2
Fore
SplineSet
33 829 m 5
 53 979 l 5
 660 979 l 5
 644 819 l 5
 525 752 l 5
 525 223 l 5
 645 160 l 5
 632 0 l 5
 35 0 l 5
 45 142 l 5
 161 221 l 5
 161 755 l 5
 33 829 l 5
61 1146 m 0
 61 1192 91 1253 199 1253 c 0
 313 1253 343 1193 343 1148 c 0
 343 1088 309 1039 198 1039 c 0
 83 1039 61 1095 61 1146 c 0
370 1146 m 0
 370 1192 400 1253 508 1253 c 0
 622 1253 652 1193 652 1148 c 0
 652 1088 618 1039 507 1039 c 0
 392 1039 370 1095 370 1146 c 0
EndSplineSet
Colour: ffffff
EndChar

StartChar: igrave
Encoding: 171 236 125
Width: 693
VWidth: 0
Flags: HMW
LayerCount: 2
Fore
SplineSet
33 829 m 1
 53 979 l 1
 660 979 l 1
 644 819 l 1
 525 752 l 1
 525 223 l 1
 645 160 l 1
 632 0 l 1
 35 0 l 1
 45 142 l 1
 161 221 l 1
 161 755 l 1
 33 829 l 1
-4 1360 m 1
 346 1370 l 1
 492 1065 l 1
 258 1039 l 1
 -4 1360 l 1
EndSplineSet
Colour: ffffff
EndChar

StartChar: j
Encoding: 74 106 126
Width: 767
VWidth: 0
Flags: HMW
LayerCount: 2
Fore
SplineSet
53 -151 m 1
 164 -57 217 18 217 185 c 2
 217 755 l 1
 82 829 l 1
 101 979 l 1
 714 979 l 1
 694 829 l 1
 584 762 l 1
 584 334 l 2
 584 -20 512 -162 170 -326 c 1
 53 -151 l 1
EndSplineSet
Colour: ffffff
EndChar

StartChar: k
Encoding: 75 107 127
Width: 1338
VWidth: 0
Flags: HMW
LayerCount: 2
Fore
SplineSet
53 829 m 1
 85 979 l 1
 675 979 l 1
 652 809 l 1
 568 735 l 1
 568 220 l 1
 655 168 l 1
 631 0 l 1
 56 0 l 1
 72 138 l 1
 204 241 l 1
 204 728 l 1
 53 829 l 1
603 501 m 1
 625 525 652 550 686 598 c 2
 793 738 l 1
 806 817 l 1
 833 979 l 1
 1241 979 l 1
 1211 829 l 1
 1040 735 l 1
 885 541 l 1
 990 390 l 2
 1072 272 1162 176 1240 149 c 2
 1285 133 l 1
 1253 0 l 1
 1197 -15 1154 -24 1098 -24 c 0
 926 -24 773 43 657 282 c 2
 592 416 l 1
 603 501 l 1
EndSplineSet
Colour: ffffff
EndChar

StartChar: l
Encoding: 76 108 128
Width: 1106
VWidth: 0
Flags: HMW
LayerCount: 2
Fore
SplineSet
57 832 m 5
 76 979 l 1
 709 979 l 1
 688 832 l 1
 552 734 l 1
 552 200 l 1
 742 178 l 1
 876 413 l 1
 1052 390 l 1
 1035 0 l 1
 53 0 l 1
 69 138 l 1
 179 217 l 1
 179 732 l 1
 57 832 l 5
EndSplineSet
Colour: ffffff
EndChar

StartChar: less
Encoding: 28 60 129
Width: 877
VWidth: 0
Flags: HMW
LayerCount: 2
Fore
SplineSet
793 36 m 1
 445 454 l 1
 781 840 l 1
 634 974 l 1
 5 504 l 1
 15 410 l 1
 647 -84 l 1
 793 36 l 1
EndSplineSet
Colour: ffffff
EndChar

StartChar: logicalnot
Encoding: 107 172 130
Width: 934
VWidth: 0
Flags: HMW
LayerCount: 2
Fore
SplineSet
57 459 m 1
 69 661 l 1
 872 661 l 1
 872 261 l 1
 653 241 l 1
 653 459 l 1
 57 459 l 1
EndSplineSet
Colour: ffffff
EndChar

StartChar: m
Encoding: 77 109 131
Width: 1553
VWidth: 0
Flags: HMW
LayerCount: 2
Back
SplineSet
-116 0 m 1
 -99 157 l 1
 43 229 l 1
 43 660 l 1
 -99 721 l 1
 -72 889 l 1
 331 918 l 1
 369 879 l 1
 346 777 l 1
 361 771 l 1
 453 867 538 928.617 650.449 928.617 c 0
 796 928.617 896 849 896 641 c 2
 896 229 l 1
 1044 165 l 1
 1021 0 l 1
 585 0 l 1
 585 157 l 1
 585 229 l 1
 585 429 l 2
 585 557.365 552 602.028 490.271 602.028 c 0
 444 602.028 402 588 361 552 c 1
 361 229 l 1
 484 166 l 1
 456 0 l 1
 -116 0 l 1
EndSplineSet
Fore
SplineSet
53 0 m 1
 74 154 l 1
 192 233 l 1
 227 766 l 1
 103 823 l 1
 119 980 l 1
 693 980 l 1
 737 775 l 1
 801 413 l 1
 877 777 l 1
 934 980 l 1
 1464 980 l 1
 1446 823 l 1
 1354 769 l 1
 1384 229 l 1
 1500 161 l 1
 1486 0 l 1
 1035 0 l 1
 1050.48 430 l 1
 1061.05 689 l 1
 1050 689 l 1
 989.977 438 l 1
 892 81 l 1
 599 42 l 1
 499.641 426 l 1
 444 690 l 1
 437.187 690 l 1
 453.492 402 l 1
 464 0 l 1
 53 0 l 1
EndSplineSet
Colour: ffffff
EndChar

StartChar: macron
Encoding: 110 175 132
Width: 628
VWidth: 0
Flags: HMW
LayerCount: 2
Fore
SplineSet
77 1379 m 1
 98 1574 l 1
 551 1574 l 5
 529 1379 l 5
 77 1379 l 1
EndSplineSet
Colour: ffffff
EndChar

StartChar: multiply
Encoding: 150 215 133
Width: 659
VWidth: 0
Flags: HMW
LayerCount: 2
Fore
SplineSet
43 616 m 1
 191 732 l 1
 335 576 l 1
 504 747 l 1
 618 597 l 1
 452 456 l 1
 610 298 l 1
 464 176 l 1
 325 343 l 1
 170 178 l 1
 51 328 l 5
 206 462 l 1
 43 616 l 1
EndSplineSet
Colour: ffffff
EndChar

StartChar: n
Encoding: 78 110 134
Width: 1265
VWidth: 0
Flags: HMW
LayerCount: 2
Fore
SplineSet
57 822 m 1
 71 979 l 1
 531 979 l 1
 725.498 690 l 1
 885 433 l 1
 885 755 l 1
 777 829 l 5
 801 979 l 5
 1212 979 l 1
 1187 829 l 1
 1099 762 l 1
 1099 15 l 1
 772 -29 l 1
 591.428 252 l 1
 407 559 l 1
 407 211 l 1
 517 148 l 1
 504 0 l 1
 53 0 l 1
 63 138 l 1
 184 217 l 1
 184 738 l 1
 57 822 l 1
EndSplineSet
Colour: ffffff
EndChar

StartChar: nine
Encoding: 25 57 136
Width: 1014
VWidth: 0
Flags: HMW
LayerCount: 2
Fore
SplineSet
51 499 m 0
 51 848 268 1027 508 1027 c 0
 832 1027 959 797 959 492 c 0
 959 19 629 -281 219 -314 c 5
 170 -199 l 5
 355 -136 536 1 564 208 c 1
 556 217 l 1
 524 165 442 135 358 135 c 0
 159 135 51 291 51 499 c 0
411 607 m 0
 411 416 437 324 507 324 c 0
 525 324 550 331 576 360 c 1
 584 403 588 501 588 569 c 0
 588 774 554 876 491 876 c 0
 432 875 411 798 411 607 c 0
EndSplineSet
Colour: ffffff
EndChar

StartChar: ntilde
Encoding: 176 241 137
Width: 1225
VWidth: 0
Flags: HMW
LayerCount: 2
Fore
SplineSet
37 822 m 1
 51 979 l 1
 511 979 l 1
 865 453 l 1
 865 755 l 1
 727 829 l 1
 751 979 l 1
 1192 979 l 1
 1167 829 l 1
 1079 762 l 1
 1079 15 l 1
 752 -29 l 1
 387 539 l 1
 387 211 l 1
 517 148 l 1
 504 0 l 1
 33 0 l 1
 43 138 l 1
 164 217 l 1
 164 738 l 1
 37 822 l 1
278 1043 m 1
 285 1317 417 1351 583 1300 c 2
 653 1278 l 2
 743 1250 785 1259 804 1328 c 1
 919 1317 l 1
 905 1060 803 1003 625 1058 c 2
 559 1078 l 2
 444 1113 418 1096 395 1032 c 1
 278 1043 l 1
EndSplineSet
Colour: ffffff
EndChar

StartChar: numbersign
Encoding: 3 35 138
Width: 1208
VWidth: 0
Flags: HMW
LayerCount: 2
Back
SplineSet
-285.096 896.475 m 1
 -98.5312 1109.69 l 1
 113.069 -665.491 l 1
 96.1084 46.8428 l 1
 -285.096 896.475 l 1
838.325 -43.6123 m 1
 1540.97 -180.91 l 1
 58.1494 550.807 l 1
 -654.185 688.105 l 1
 838.325 -43.6123 l 1
EndSplineSet
Fore
SplineSet
31 205 m 17
 86 427 l 9
 1111 427 l 17
 1057 205 l 9
 31 205 l 17
93 549 m 17
 148 771 l 9
 1175 771 l 17
 1122 549 l 9
 93 549 l 17
234 -26 m 9
 402 988 l 17
 615 998 l 9
 447 -19 l 17
 234 -26 l 9
589 -26 m 9
 757 988 l 17
 971 997 l 9
 803 -19 l 17
 589 -26 l 9
EndSplineSet
Colour: ffffff
EndChar

StartChar: o
Encoding: 79 111 139
Width: 1175
VWidth: 0
Flags: HMW
LayerCount: 2
Fore
SplineSet
55 469 m 4
 55 782 257 997 593 997 c 4
 901 997 1120 864 1120 504 c 4
 1120 158 870 -27 553 -27 c 4
 210 -27 55 177 55 469 c 4
458 531 m 4
 458 426 480 163 591 163 c 4
 663 163 701 263 701 494 c 4
 701 627 661 822 562 822 c 4
 486 822 458 711 458 531 c 4
EndSplineSet
Colour: ffffff
EndChar

StartChar: oacute
Encoding: 178 243 140
Width: 1135
VWidth: 0
Flags: HMW
LayerCount: 2
Fore
SplineSet
35 469 m 0
 35 782 237 997 573 997 c 0
 881 997 1100 864 1100 504 c 0
 1100 158 850 -27 533 -27 c 0
 190 -27 35 177 35 469 c 0
438 531 m 0
 438 426 460 163 571 163 c 0
 643 163 681 263 681 494 c 0
 681 627 641 822 542 822 c 0
 466 822 438 711 438 531 c 0
404 1064 m 1
 549 1369 l 1
 899 1359 l 1
 638 1038 l 1
 404 1064 l 1
EndSplineSet
Colour: ffffff
EndChar

StartChar: ocircumflex
Encoding: 179 244 141
Width: 1135
VWidth: 0
Flags: HMW
LayerCount: 2
Fore
SplineSet
35 469 m 0
 35 782 237 997 573 997 c 0
 881 997 1100 864 1100 504 c 0
 1100 158 850 -27 533 -27 c 0
 190 -27 35 177 35 469 c 0
438 531 m 0
 438 426 460 163 571 163 c 0
 643 163 681 263 681 494 c 0
 681 627 641 822 542 822 c 0
 466 822 438 711 438 531 c 0
257 1043 m 1
 410 1298 l 1
 735 1298 l 1
 889 1043 l 1
 636 1034 l 1
 572 1155 l 1
 558 1155 l 1
 490 1033 l 1
 257 1043 l 1
EndSplineSet
Colour: ffffff
EndChar

StartChar: odieresis
Encoding: 181 246 142
Width: 1135
VWidth: 0
Flags: HMW
LayerCount: 2
Fore
SplineSet
35 469 m 0
 35 782 237 997 573 997 c 0
 881 997 1100 864 1100 504 c 0
 1100 158 850 -27 533 -27 c 0
 190 -27 35 177 35 469 c 0
438 531 m 0
 438 426 460 163 571 163 c 0
 643 163 681 263 681 494 c 0
 681 627 641 822 542 822 c 0
 466 822 438 711 438 531 c 0
268 1144 m 0
 268 1190 298 1251 406 1251 c 0
 520 1251 549 1191 549 1146 c 0
 549 1086 516 1037 405 1037 c 0
 290 1037 268 1093 268 1144 c 0
577 1144 m 0
 577 1190 607 1251 715 1251 c 0
 829 1251 858 1191 858 1146 c 0
 858 1086 825 1037 714 1037 c 0
 599 1037 577 1093 577 1144 c 0
EndSplineSet
Colour: ffffff
EndChar

StartChar: ograve
Encoding: 177 242 143
Width: 1135
VWidth: 0
Flags: HMW
LayerCount: 2
Fore
SplineSet
35 469 m 0
 35 782 237 997 573 997 c 0
 881 997 1100 864 1100 504 c 0
 1100 158 850 -27 533 -27 c 0
 190 -27 35 177 35 469 c 0
438 531 m 0
 438 426 460 163 571 163 c 0
 643 163 681 263 681 494 c 0
 681 627 641 822 542 822 c 0
 466 822 438 711 438 531 c 0
180 1358 m 1
 530 1368 l 1
 675 1063 l 1
 441 1037 l 1
 180 1358 l 1
EndSplineSet
Colour: ffffff
EndChar

StartChar: one
Encoding: 17 49 144
Width: 890
VWidth: 0
Flags: HMW
LayerCount: 2
Fore
SplineSet
45 -5 m 1
 62 124 l 1
 266 191 l 1
 266 745 l 1
 70 745 l 1
 82 912 l 1
 538 1016 l 1
 629 1016 l 1
 629 178 l 1
 846 132 l 1
 833 -5 l 1
 45 -5 l 1
EndSplineSet
Colour: ffffff
EndChar

StartChar: onehalf
Encoding: 124 189 145
Width: 1928
VWidth: 0
Flags: HMW
LayerCount: 2
Fore
SplineSet
45 528 m 1
 60 658 l 1
 188 693 l 1
 188 1073 l 1
 67 1073 l 1
 78 1241 l 1
 456 1274 l 1
 525 1274 l 1
 525 686 l 1
 662 666 l 1
 655 528 l 1
 45 528 l 1
269 35 m 1
 826 588 l 1
 1369 1207 l 1
 1671 1205 l 1
 1671 1130 l 1
 1130 591 l 1
 637 -19 l 1
 269 35 l 1
1210 118 m 1
 1326 201 l 2
 1463 299 1520 399 1520 456 c 0
 1520 495 1493 518 1448 518 c 0
 1430 518 1420 514 1401 507 c 1
 1361 334 l 1
 1252 344 l 1
 1210 572 l 1
 1284 640 1409 688 1553 688 c 0
 1768 688 1850 573 1850 497 c 0
 1850 344 1677 240 1560 192 c 2
 1480 159 l 1
 1681 139 l 1
 1769 260 l 1
 1880 254 l 1
 1846 -60 l 1
 1224 -60 l 1
 1210 118 l 1
EndSplineSet
Colour: ffffff
EndChar

StartChar: onequarter
Encoding: 123 188 146
Width: 1865
VWidth: 0
Flags: HMW
LayerCount: 2
Fore
SplineSet
45 528 m 1
 60 658 l 1
 188 693 l 1
 188 1073 l 1
 67 1073 l 1
 78 1241 l 1
 456 1274 l 1
 525 1274 l 1
 525 686 l 1
 662 666 l 1
 655 528 l 1
 45 528 l 1
269 35 m 1
 826 588 l 1
 1369 1207 l 1
 1671 1205 l 1
 1671 1130 l 1
 1130 591 l 1
 637 -19 l 1
 269 35 l 1
1076 295 m 1
 1574 707 l 1
 1685 681 l 1
 1680 623 1674 513 1674 425 c 2
 1674 314 l 1
 1822 314 l 1
 1813 145 l 1
 1674 145 l 1
 1674 63 l 1
 1773 35 l 1
 1766 -60 l 1
 1281 -60 l 1
 1286 30 l 1
 1385 62 l 1
 1385 148 l 1
 1091 148 l 1
 1076 295 l 1
1279 275 m 1
 1404 275 l 1
 1404 441 l 1
 1279 275 l 1
EndSplineSet
Colour: ffffff
EndChar

StartChar: one.superior
Encoding: 120 185 147
Width: 718
VWidth: 0
Flags: HMW
LayerCount: 2
Fore
SplineSet
50 528 m 1
 65 658 l 1
 193 693 l 1
 193 1073 l 1
 72 1073 l 1
 83 1241 l 1
 461 1274 l 1
 530 1274 l 1
 530 686 l 1
 667 666 l 1
 660 528 l 1
 50 528 l 1
EndSplineSet
Colour: ffffff
EndChar

StartChar: ordfeminine
Encoding: 105 170 148
Width: 836
VWidth: 0
Flags: HMW
LayerCount: 2
Fore
SplineSet
53 676 m 0
 53 819 184 938 420 936 c 1
 420 1012 l 2
 420 1086 383 1132 329 1132 c 0
 291 1132 283 1101 273 968 c 1
 177 968 80 982 80 1072 c 0
 80 1164 281 1285 448 1285 c 0
 566 1285 686 1224 686 1039 c 2
 686 825 l 2
 686 734 693 709 764 694 c 2
 787 689 l 1
 767 553 l 1
 721 526 676 507 598 507 c 0
 511 507 477 537 452 601 c 2
 448 611 l 1
 438 616 l 1
 414 552 315 508 230 508 c 0
 123 508 53 560 53 676 c 0
310 749 m 0
 310 717 323 690 364 690 c 0
 384 690 398 697 420 713 c 1
 420 834 l 1
 321 823 310 783 310 749 c 0
EndSplineSet
Colour: ffffff
EndChar

StartChar: ordmasculine
Encoding: 121 186 149
Width: 889
VWidth: 0
Flags: HMW
LayerCount: 2
Fore
SplineSet
51 900 m 0
 51 1145 279 1289 457 1289 c 0
 699 1289 837 1169 837 920 c 0
 837 667 673 507 440 507 c 0
 146 507 51 701 51 900 c 0
338 951 m 0
 338 758 367 663 465 663 c 0
 532 663 547 698 547 814 c 0
 547 960 547 1123 427 1123 c 0
 350 1123 338 1061 338 951 c 0
EndSplineSet
Colour: ffffff
EndChar

StartChar: oslash
Encoding: 183 248 150
Width: 1227
VWidth: 0
Flags: HMW
LayerCount: 2
Fore
SplineSet
83 469 m 0
 83 782 285 997 621 997 c 0
 929 997 1148 864 1148 504 c 0
 1148 158 898 -27 581 -27 c 0
 238 -27 83 177 83 469 c 0
32 65 m 1
 216 221 l 1
 308 247 l 1
 798 737 l 1
 838 845 l 1
 1011 965 l 1
 1196 900 l 1
 999 757 l 1
 896 701 l 1
 384 183 l 1
 355 105 l 1
 220 1 l 1
 32 65 l 1
486 531 m 0
 486 426 508 163 619 163 c 0
 691 163 729 263 729 494 c 0
 729 627 689 822 590 822 c 0
 514 822 486 711 486 531 c 0
EndSplineSet
Colour: ffffff
EndChar

StartChar: otilde
Encoding: 180 245 151
Width: 1135
VWidth: 0
Flags: HMW
LayerCount: 2
Fore
SplineSet
35 469 m 0
 35 782 237 997 573 997 c 0
 881 997 1100 864 1100 504 c 0
 1100 158 850 -27 533 -27 c 0
 190 -27 35 177 35 469 c 0
438 531 m 0
 438 426 460 163 571 163 c 0
 643 163 681 263 681 494 c 0
 681 627 641 822 542 822 c 0
 466 822 438 711 438 531 c 0
249 1046 m 1
 256 1320 388 1354 554 1303 c 2
 624 1281 l 2
 714 1253 756 1262 775 1331 c 1
 890 1320 l 1
 876 1063 774 1006 596 1061 c 2
 530 1081 l 2
 415 1116 389 1099 366 1035 c 1
 249 1046 l 1
EndSplineSet
Colour: ffffff
EndChar

StartChar: p
Encoding: 80 112 152
Width: 1156
VWidth: 0
Flags: HMW
LayerCount: 2
Back
SplineSet
-138 1043 m 5
 -110 1208 l 5
 266 1234 l 5
 323 1180 l 5
 323 878 l 5
 308 777 l 5
 323 771 l 5
 404 861 475 930 587 930 c 4
 804 930 940 752 940 497 c 4
 940 179 665 -23 404 -23 c 4
 316 -23 103 -2 7 51 c 5
 7 943 l 5
 -138 1043 l 5
323 279 m 5
 366.135 240.406 409.488 221.946 448.382 221.946 c 4
 529.411 221.946 591.082 302.068 591.082 447.165 c 4
 591.082 543.945 554.586 635.194 470.821 635.194 c 4
 432.037 635.194 383.12 615.632 323 568 c 5
 323 279 l 5
EndSplineSet
Fore
SplineSet
53 0 m 1
 75 138 l 1
 212 217 l 1
 212 758 l 1
 72 802 l 1
 85 961 l 1
 264 982 401 997 620 997 c 0
 912 997 1102 921 1102 675 c 0
 1102 422 904 268 620 298 c 1
 588 452 l 1
 609 452 l 2
 693 452 732 521 732 617 c 0
 732 719 684 780 600 780 c 0
 589 780 578 779 566 777 c 1
 566 233 l 1
 747 164 l 1
 723 0 l 1
 53 0 l 1
EndSplineSet
Colour: ffffff
EndChar

StartChar: paragraph
Encoding: 117 182 153
Width: 1473
VWidth: 0
Flags: HMW
LayerCount: 2
Fore
SplineSet
33 637 m 0
 33 853 210 979 508 979 c 2
 899 979 l 5
 899 0 l 5
 394 0 l 1
 405 136 l 1
 625 216 l 1
 625 807 l 1
 586 814 548 818 514 818 c 0
 400 818 330 777 330 671 c 0
 330 596 373 519 568 507 c 1
 545 322 l 1
 172 322 33 455 33 637 c 0
995 0 m 5
 995 979 l 5
 1439 979 l 1
 1419 827 l 1
 1257 756 l 1
 1257 212 l 1
 1436 146 l 1
 1423 0 l 1
 995 0 l 5
EndSplineSet
Colour: ffffff
EndChar

StartChar: parenleft
Encoding: 8 40 154
Width: 569
VWidth: 0
Flags: HMW
LayerCount: 2
Fore
SplineSet
491 -278 m 1
 401 -144 326 40 326 454 c 0
 326 877 398 1018 485 1130 c 5
 355 1255 l 1
 291 1201 17 949 17 426 c 0
 17 -88 312 -328 360 -376 c 1
 491 -278 l 1
EndSplineSet
Colour: ffffff
EndChar

StartChar: parenright
Encoding: 9 41 155
Width: 568
VWidth: 0
Flags: HMW
LayerCount: 2
Fore
SplineSet
39 -278 m 1
 129 -144 204 40 204 454 c 0
 204 877 132 1018 45 1130 c 5
 175 1255 l 1
 239 1201 513 949 513 426 c 0
 513 -88 218 -328 170 -376 c 1
 39 -278 l 1
EndSplineSet
Colour: ffffff
EndChar

StartChar: percent
Encoding: 5 37 156
Width: 1326
VWidth: 0
Flags: HMW
LayerCount: 2
Back
SplineSet
-151 892 m 0xad80
 -151 1061 54 1205 224 1205 c 0
 408 1205 576 1067 576 889 c 0
 576 720 387 580 226 580 c 0
 12 580 -151 702 -151 892 c 0xad80
159 882 m 0
 159 765 165 703 226 703 c 0
 270 703 280 764 280 885 c 0
 280 1005 261 1090 224 1090 c 0
 168 1090 159 996 159 882 c 0
EndSplineSet
Fore
SplineSet
32 706 m 0
 32 826 167 980 302 980 c 0
 312 980 309 980 319 978 c 1
 326 874 l 17
 324 874 313 876 311 876 c 0
 276 876 265 811 265 706 c 0
 265 603 264 529 313 529 c 0
 351 529 359 600 359 706 c 0
 359 831 357 919 352 980 c 9
 929 979 l 25
 936 909 l 25
 501 890 l 17
 571 828 581 750 581 706 c 0
 581 551 440 427 313 426 c 0
 146 425 32 530 32 706 c 0
128 31 m 1
 571 517 l 1
 929 979 l 1
 1179 978 l 1
 1179 912 l 1
 822 520 l 1
 427 -17 l 1
 128 31 l 1
740 243 m 0
 740 392 896 518 1025 518 c 0
 1165 518 1292 397 1292 240 c 0
 1292 91 1148 -32 1026 -32 c 0
 863 -32 740 76 740 243 c 0
975 234 m 0
 975 131 980 77 1026 77 c 0
 1059 77 1067 131 1067 237 c 0
 1067 343 1053 417 1025 417 c 0
 982 417 975 334 975 234 c 0
EndSplineSet
Colour: ffffff
EndChar

StartChar: period
Encoding: 14 46 157
Width: 546
VWidth: 0
Flags: HMW
LayerCount: 2
Fore
SplineSet
60 127 m 0
 60 192 106 280 269 280 c 0
 442 280 487 194 487 130 c 0
 487 45 436 -26 268 -26 c 0
 94 -26 60 54 60 127 c 0
EndSplineSet
Colour: ffffff
EndChar

StartChar: periodcentered
Encoding: 118 183 158
Width: 541
VWidth: 0
Flags: HMW
LayerCount: 2
Fore
SplineSet
117 505 m 0
 117 570 163 658 326 658 c 0
 499 658 544 572 544 508 c 0
 544 423 493 352 325 352 c 0
 151 352 117 432 117 505 c 0
EndSplineSet
Colour: ffffff
EndChar

StartChar: plus
Encoding: 11 43 159
Width: 747
VWidth: 0
Flags: HMW
LayerCount: 2
Fore
SplineSet
53 376 m 1
 61 541 l 1
 280 541 l 1
 280 786 l 1
 468 774 l 1
 468 541 l 1
 694 541 l 1
 681 376 l 1
 468 376 l 1
 468 142 l 1
 280 146 l 1
 280 376 l 1
 53 376 l 1
EndSplineSet
Colour: ffffff
EndChar

StartChar: plusminus
Encoding: 112 177 160
Width: 743
VWidth: 0
Flags: HMW
LayerCount: 2
Fore
SplineSet
104 610 m 1
 112 775 l 1
 331 775 l 1
 331 1020 l 1
 519 1008 l 1
 519 775 l 1
 745 775 l 1
 732 610 l 1
 519 610 l 1
 519 376 l 1
 331 380 l 1
 331 610 l 1
 104 610 l 1
133 141 m 5
 148 319 l 5
 728 341 l 5
 713 156 l 5
 133 141 l 5
EndSplineSet
Colour: ffffff
EndChar

StartChar: q
Encoding: 81 113 161
Width: 1159
VWidth: 0
Flags: HMW
LayerCount: 2
Back
SplineSet
421.879 911.228 m 0
 453.224 911.228 485.04 916.86 517 908 c 1
 521 908 l 1
 511 956 l 1
 511 972 l 1
 338 1073 l 1
 363 1237 l 1
 753 1264 l 1
 813 1209 l 1
 813 375 l 2
 813 272 842.366 248.918 951 214 c 2
 979 205 l 1
 954 35 l 1
 878.861 -0.234375 816 -22.877 717.626 -22.877 c 0
 609.096 -22.877 546.953 26.5205 516 107 c 2
 511 120 l 1
 498 126 l 1
 444 51 376 -19 238 -19 c 0
 21.043 -19 -85.4648 163.195 -85.4648 367.182 c 0
 -85.4648 626.314 86.2354 910.326 421.879 911.228 c 0
391.334 252.902 m 0
 422.926 252.902 461.079 264.23 507 291 c 1
 507 590 l 1
 454.187 654.047 408.401 679.759 370.759 679.759 c 0
 294.333 679.759 251.466 573.771 251.466 467.423 c 0
 251.466 360.346 294.922 252.902 391.334 252.902 c 0
EndSplineSet
Fore
SplineSet
55 486 m 0
 55 784 277 997 609 997 c 0
 903 997 1104 858 1104 521 c 0
 1104 251 939 54 743 -4 c 1
 792 -123 918 -162 1018 -180 c 1
 997 -295 l 1
 929 -329 859 -345 795 -345 c 0
 621 -345 496 -224 534 -26 c 1
 233 -24 55 174 55 486 c 0
450 528 m 0
 450 319 502 173 609 147 c 1
 679 210 694 325 694 481 c 0
 694 601 670 822 551 822 c 0
 478 822 450 710 450 528 c 0
EndSplineSet
Colour: ffffff
EndChar

StartChar: question
Encoding: 31 63 162
Width: 751
VWidth: 0
Flags: HMW
LayerCount: 2
Back
SplineSet
85 127 m 0
 85 192 131 280 294 280 c 0
 467 280 512 194 512 130 c 0
 512 45 461 -26 293 -26 c 0
 119 -26 85 54 85 127 c 0
0 1133 m 0
 0 1216 58 1291 231 1291 c 0
 444 1291 661 1025 661 806 c 0
 661 703 613 610 493 561 c 4
 431 536 373 510 373 439 c 0
 373 429 374 418 377 406 c 1
 216 374 l 1
 149 474 122 584 122 635 c 0
 122 802 449 773 449 913 c 0
 449 962 405 979 350 979 c 0
 270 979 167 943 142 916 c 1
 77 931 0 1037 0 1133 c 0
EndSplineSet
Fore
SplineSet
43 1133 m 0
 43 1216 101 1291 274 1291 c 0
 487 1291 704 1025 704 806 c 0
 704 524 416 592 416 439 c 0
 416 429 426 374 429 362 c 1
 259 374 l 1
 192 474 165 584 165 635 c 0
 165 802 492 792 492 900 c 0
 492 949 423 975 368 975 c 0
 288 975 179 943 154 916 c 1
 106 942 43 1037 43 1133 c 0
128 127 m 0
 128 192 174 280 337 280 c 0
 510 280 555 194 555 130 c 0
 555 45 504 -26 336 -26 c 0
 162 -26 128 54 128 127 c 0
EndSplineSet
Colour: ffffff
EndChar

StartChar: questiondown
Encoding: 126 191 163
Width: 747
VWidth: 0
Flags: HMW
LayerCount: 2
Fore
SplineSet
665 -231 m 0
 665 -314 607 -389 434 -389 c 0
 221 -389 4 -123 4 96 c 0
 4 378 292 310 292 463 c 0
 292 473 282 528 279 540 c 1
 449 528 l 1
 516 428 543 318 543 267 c 0
 543 100 216 110 216 2 c 0
 216 -47 285 -73 340 -73 c 0
 420 -73 529 -41 554 -14 c 1
 602 -40 665 -135 665 -231 c 0
580 775 m 0
 580 710 534 622 371 622 c 0
 198 622 153 708 153 772 c 0
 153 857 204 928 372 928 c 0
 546 928 580 848 580 775 c 0
EndSplineSet
Colour: ffffff
EndChar

StartChar: quotedbl
Encoding: 2 34 164
Width: 744
VWidth: 0
Flags: HMW
LayerCount: 2
Fore
SplineSet
100 1302 m 5
 411 1278 l 5
 350 920 l 5
 175 894 l 5
 100 1302 l 5
430 1302 m 5
 741 1278 l 5
 680 920 l 5
 505 894 l 5
 430 1302 l 5
EndSplineSet
Colour: ffffff
EndChar

StartChar: quotesinglbase
Encoding: 200 8218 165
Width: 564
VWidth: 0
Flags: HMW
LayerCount: 2
Fore
SplineSet
122 96 m 0
 121 216 208 278 324 278 c 0
 504 278 567 166 567 12 c 0
 567 -152 447 -338 173 -377 c 1
 129 -259 l 5
 245 -221 294 -142 294 -80 c 0
 294 -23 255 10 207 10 c 0
 190 10 171 6 153 -3 c 1
 132 32 122 60 122 96 c 0
EndSplineSet
Colour: ffffff
EndChar

StartChar: quotesingle
Encoding: 7 39 166
Width: 414
VWidth: 0
Flags: HMW
LayerCount: 2
Fore
SplineSet
50 1302 m 5
 361 1278 l 5
 300 920 l 5
 125 894 l 5
 50 1302 l 5
EndSplineSet
Colour: ffffff
EndChar

StartChar: r
Encoding: 82 114 167
Width: 1374
VWidth: 0
Flags: HMW
LayerCount: 2
Back
SplineSet
-105 0 m 1
 -88 157 l 1
 54 229 l 1
 54 640 l 1
 -88 721 l 5
 -61 889 l 5
 342 918 l 5
 380 879 l 5
 357 777 l 1
 372 771 l 1
 464 867 549 928.617 661.449 928.617 c 0
 807 928.617 907 849 907 641 c 2
 907 229 l 1
 1055 165 l 1
 1032 0 l 1
 596 0 l 1
 596 157 l 1
 596 229 l 1
 596 429 l 2
 596 557.365 563 602.028 501.271 602.028 c 0
 455 602.028 413 588 372 552 c 1
 372 229 l 1
 495 166 l 1
 467 0 l 1
 -105 0 l 1
EndSplineSet
Fore
SplineSet
53 0 m 1
 72 138 l 1
 212 217 l 1
 212 738 l 1
 70 785 l 1
 82 945 l 1
 212 974 396 997 639 997 c 0
 981 997 1165 923 1165 706 c 0
 1165 552 1070 460 962 416 c 1
 962 415 l 1
 1023 353 l 2
 1142 232 1206 176 1292 146 c 2
 1321 133 l 1
 1290 2 l 1
 1246 -16 1161 -27 1076 -27 c 0
 911 -27 801 58 698 272 c 2
 661 353 l 1
 582 353 l 1
 582 209 l 1
 685 155 l 1
 673 0 l 1
 53 0 l 1
582 512 m 1
 737 512 l 1
 768 544 784 587 784 658 c 0
 784 742 718 817 615 817 c 0
 604 817 593 817 582 816 c 1
 582 512 l 1
EndSplineSet
Colour: ffffff
EndChar

StartChar: registered
Encoding: 109 174 168
Width: 1227
VWidth: 0
Flags: HMW
LayerCount: 2
Fore
SplineSet
46 1022 m 0
 46 1388 337 1542 605 1542 c 0
 881 1542 1180 1404 1180 1026 c 0
 1180 676 877 520 595 520 c 0
 333 520 46 664 46 1022 c 0
184 1036 m 0
 184 776 351 636 603 636 c 0
 879 636 1042 784 1042 1016 c 0
 1042 1280 851 1426 605 1426 c 0
 331 1426 184 1300 184 1036 c 0
291 773 m 1
 300 835 l 1
 375 870 l 1
 375 1221 l 1
 299 1242 l 1
 305 1314 l 1
 370 1324 524 1337 591 1337 c 0
 762 1337 865 1298 865 1181 c 0
 865 1098 787 1057 738 1040 c 1
 738 1039 l 1
 777 977 l 2
 818 913 887 867 929 843 c 2
 947 833 l 1
 933 774 l 1
 914 768 881 761 835 761 c 0
 724 761 645 823 615 918 c 2
 595 979 l 1
 562 979 l 1
 562 876 l 1
 616 842 l 1
 611 773 l 1
 291 773 l 1
562 1073 m 1
 621 1073 l 1
 656 1092 664 1118 664 1160 c 0
 664 1211 639 1256 573 1256 c 0
 568 1256 567 1256 562 1256 c 1
 562 1073 l 1
EndSplineSet
Colour: ffffff
EndChar

StartChar: ring
Encoding: 193 730 169
Width: 700
VWidth: 0
Flags: HMW
LayerCount: 2
Fore
SplineSet
66 1468 m 0
 66 1562 148 1641 350 1641 c 0
 552 1641 635 1581 635 1477 c 0
 635 1391 554 1306 342 1306 c 0
 137 1306 66 1369 66 1468 c 0
277 1473 m 0
 277 1429 310 1416 345 1416 c 0
 377 1416 412 1435 412 1473 c 0
 412 1510 376 1532 339 1532 c 0
 309 1532 277 1507 277 1473 c 0
EndSplineSet
Colour: ffffff
EndChar

StartChar: s
Encoding: 83 115 170
Width: 929
VWidth: 0
Flags: HMW
LayerCount: 2
Back
SplineSet
-70 141 m 4
 -70 208 -21 265 62 271 c 5
 105 130 175 64 251 64 c 4
 321 64 383 91 383 165 c 4
 383 324 -46 354 -46 624 c 4
 -46 740 50 900 252 900 c 4
 383 900 497 845 497 734 c 4
 497 651 444 595 357 589 c 5
 350 632 l 6
 322 780 260 816 201 816 c 4
 131 816 89 760 89 696 c 4
 89 509 528 487 528 220 c 4
 528 72 374 -34 220 -34 c 4
 42 -34 -70 51 -70 141 c 4
EndSplineSet
Fore
SplineSet
53 46 m 5
 87 368 l 5
 264 339 l 5
 306 192 l 5
 329 168 383 156 430 156 c 4
 491 156 544 191 544 226 c 4
 544 323 81 346 81 667 c 4
 81 869 261 997 491 997 c 4
 661 997 792 967 839 947 c 5
 839 926 811 635 811 635 c 5
 638 665 l 5
 599 808 l 21
 577 826 522 837 479 837 c 4
 410 837 364 805 364 770 c 4
 364 625 876 621 876 292 c 4
 876 48 599 -23 455 -23 c 4
 276 -23 101 7 53 46 c 5
EndSplineSet
Colour: ffffff
EndChar

StartChar: section
Encoding: 102 167 171
Width: 1053
VWidth: 0
Flags: HMW
LayerCount: 2
Fore
SplineSet
64 -231 m 1
 85 80 l 1
 270 46 l 1
 318 -157 l 1
 339 -175 430 -210 512 -210 c 0
 588 -210 656 -180 656 -81 c 0
 656 154.945 -78 68.6964 78 608 c 1
 468 436 l 2
 813 286.111 984 242.722 984 10 c 0
 984 -303 646 -393 459 -393 c 0
 315 -393 128 -312 64 -231 c 1
73 909 m 0
 73 1192 274 1266 543 1266 c 0
 686 1266 826 1234 887 1187 c 1
 887 1163 874 899 874 899 c 1
 703 922 l 1
 654 1068 l 17
 622 1090 558 1117 501 1117 c 0
 442 1117 391 1089 391 995 c 0
 391 760.957 1182 874.551 965 334 c 1
 446 559 l 2
 217 654.192 73 733.038 73 909 c 0
EndSplineSet
Colour: ffffff
EndChar

StartChar: semicolon
Encoding: 27 59 172
Width: 532
VWidth: 0
Flags: HMW
LayerCount: 2
Fore
SplineSet
121 758.65 m 0
 121 820.4 162.4 904 309.1 904 c 0
 464.8 904 505.3 822.3 505.3 761.5 c 0
 505.3 680.75 459.4 613.3 308.2 613.3 c 0
 151.6 613.3 121 689.3 121 758.65 c 0
114.95 81.4004 m 0
 114 189.4 196.65 245.2 306.85 245.2 c 0
 477.85 245.2 537.7 144.4 537.7 5.7998 c 0
 537.7 -141.8 423.7 -309.2 163.4 -344.3 c 1
 121.6 -238.1 l 1
 231.8 -203.9 278.35 -132.8 278.35 -77 c 0
 278.35 -25.7002 241.3 4 195.7 4 c 0
 179.55 4 161.5 0.400391 144.4 -7.7002 c 1
 124.45 23.7998 114.95 49 114.95 81.4004 c 0
EndSplineSet
Colour: ffffff
EndChar

StartChar: seven
Encoding: 23 55 173
Width: 926
VWidth: 0
Flags: HMW
LayerCount: 2
Fore
SplineSet
48 567 m 1
 101 993 l 1
 880 993 l 1
 878 817 l 1
 615 423 446 131 417 -294 c 1
 380 -299 344 -302 311 -302 c 0
 197 -302 118 -252 118 -128 c 0
 118 35 442 443 639 710 c 1
 248 710 l 1
 185 543 l 1
 48 567 l 1
EndSplineSet
Colour: ffffff
EndChar

StartChar: six
Encoding: 22 54 174
Width: 1046
VWidth: 0
Flags: HMW
LayerCount: 2
Fore
SplineSet
53 420 m 0
 53 877 456 1204 742 1275 c 1
 809 1185 l 1
 630 1098 478 889 438 713 c 1
 457 713 l 1
 514 775 592 805 671 805 c 0
 904 805 996 648 996 423 c 0
 996 109 737 -19 521 -19 c 0
 217 -19 53 185 53 420 c 0
425 386 m 0
 425 267 442 122 526 122 c 0
 573 122 628 161 628 350 c 0
 628 414 622 603 521 603 c 0
 477 603 451 576 431 549 c 1
 429 517 425 440 425 386 c 0
EndSplineSet
Colour: ffffff
EndChar

StartChar: slash
Encoding: 15 47 175
Width: 768
VWidth: 0
Flags: HMW
LayerCount: 2
Fore
SplineSet
37 -372 m 1
 499 1224 l 1
 729 1244 l 1
 263 -358 l 1
 37 -372 l 1
EndSplineSet
Colour: ffffff
EndChar

StartChar: softhyphen
Encoding: 108 173 176
Width: 634
VWidth: 0
Flags: HMW
LayerCount: 2
Fore
SplineSet
61 348 m 1
 66 572 l 1
 573 628 l 1
 567 405 l 1
 61 348 l 1
EndSplineSet
Colour: ffffff
EndChar

StartChar: sterling
Encoding: 98 163 178
Width: 1187
VWidth: 0
Flags: HMW
LayerCount: 2
Fore
SplineSet
32 0 m 1
 38 138 l 1
 206 193 l 1
 237 251 245 295 245 379 c 2
 245 391 l 1
 69 382 l 1
 80 537 l 1
 250 547 l 1
 255 624 l 2
 273 898 543 997 768 997 c 0
 1034 997 1135 891 1135 789 c 0
 1135 691 1015 621 884 625 c 1
 877 765 809 858 726 858 c 0
 606 858 581 792 581 633 c 2
 581 562 l 1
 837 569 l 1
 827 414 l 1
 578 404 l 1
 578 390 l 2
 578 289 560 240 515 188 c 1
 849 158 l 1
 989 404 l 1
 1152 364 l 1
 1136 0 l 1
 32 0 l 1
EndSplineSet
Colour: ffffff
EndChar

StartChar: t
Encoding: 84 116 179
Width: 1179
VWidth: 0
Flags: HMW
LayerCount: 2
Fore
SplineSet
56 979 m 1
 1125 979 l 1
 1093 571 l 1
 910 602 l 1
 846 807 l 1
 767 807 l 1
 767 208 l 1
 909 153 l 1
 893 0 l 1
 256 0 l 1
 269 140 l 1
 406 209 l 1
 406 807 l 1
 316 807 l 1
 229 559 l 1
 59 585 l 1
 56 979 l 1
EndSplineSet
Colour: ffffff
EndChar

StartChar: thorn
Encoding: 189 254 180
Width: 1025
VWidth: 0
Flags: HMW
LayerCount: 2
Back
SplineSet
23 1043 m 1
 51 1208 l 1
 427 1234 l 1
 484 1180 l 1
 484 878 l 5
 469 777 l 5
 484 771 l 5
 565 861 636 930 748 930 c 0
 965 930 1101 752 1101 497 c 0
 1101 179 833 -23 545 -23 c 0
 457 -23 264 -2 168 51 c 1
 168 943 l 1
 23 1043 l 1
484 259 m 1
 527.135 220.406 570.488 201.946 609.382 201.946 c 0
 690.411 201.946 752.082 302.068 752.082 447.165 c 0
 752.082 543.945 715.586 645.194 631.821 645.194 c 0
 593.037 645.194 544.12 625.632 484 578 c 5
 484 259 l 1
EndSplineSet
Fore
SplineSet
33 829 m 1
 53 979 l 1
 660 979 l 1
 644 859 l 1
 525 802 l 1
 525 183 l 1
 645 130 l 1
 632 0 l 1
 35 0 l 1
 45 142 l 1
 161 221 l 1
 161 755 l 1
 33 829 l 1
312 766 m 1
 392 772 477 775 580 775 c 0
 830 775 992 711 992 503 c 0
 992 311 822 193 580 216 c 1
 548 340 l 1
 559 341 l 2
 619 346 652 397 652 475 c 0
 652 552 618 598 560 598 c 0
 549 598 538 597 526 595 c 1
 312 766 l 1
EndSplineSet
Colour: ffffff
EndChar

StartChar: three
Encoding: 19 51 181
Width: 947
VWidth: 0
Flags: HMW
LayerCount: 2
Fore
SplineSet
30 -99 m 0
 30 -40 67 45 202 70 c 1
 234 -22 312 -159 420 -159 c 0
 512 -159 568 -113 568 -10 c 0
 568 116 469 265 279 243 c 1
 253 362 l 1
 455 422 533 535 533 637 c 0
 533 709 476 766 388 766 c 0
 295 766 207 707 156 584 c 1
 54 670 l 1
 131 888 348 983 503 983 c 0
 697 983 864 891 864 695 c 0
 864 572 757 447 594 415 c 1
 594 391 l 1
 837 374 900 217 900 85 c 0
 900 -133 645 -308 356 -308 c 0
 151 -308 30 -207 30 -99 c 0
EndSplineSet
Colour: ffffff
EndChar

StartChar: threequarters
Encoding: 125 190 182
Width: 1869
VWidth: 0
Flags: HMW
LayerCount: 2
Fore
SplineSet
45 1196 m 1
 82 1249 239 1303 346 1303 c 0
 548 1303 706 1270 706 1144 c 0
 706 1044 564 969 458 944 c 1
 458 934 l 1
 677 943 739 885 743 767 c 0
 748 617 551 489 265 489 c 0
 186 489 120 498 59 517 c 1
 106 794 l 1
 264 786 l 1
 275 665 l 1
 284 663 294 661 303 661 c 0
 340 661 377 684 377 734 c 0
 377 795 333 851 257 831 c 1
 221 956 l 1
 321 972 367 1008 367 1056 c 0
 367 1116 328 1142 289 1142 c 0
 283 1142 267 1141 261 1141 c 1
 229 991 l 1
 83 996 l 1
 45 1196 l 1
273 35 m 1
 830 588 l 1
 1373 1207 l 1
 1675 1205 l 1
 1675 1130 l 1
 1134 591 l 1
 641 -19 l 1
 273 35 l 1
1080 295 m 1
 1578 707 l 1
 1689 681 l 1
 1684 623 1678 513 1678 425 c 2
 1678 314 l 1
 1826 314 l 1
 1817 145 l 1
 1678 145 l 1
 1678 63 l 1
 1777 35 l 1
 1770 -60 l 1
 1285 -60 l 1
 1290 30 l 1
 1389 62 l 1
 1389 148 l 1
 1095 148 l 1
 1080 295 l 1
1283 275 m 1
 1408 275 l 1
 1408 441 l 1
 1283 275 l 1
EndSplineSet
Colour: ffffff
EndChar

StartChar: three.superior
Encoding: 114 179 183
Width: 799
VWidth: 0
Flags: HMW
LayerCount: 2
Fore
SplineSet
50 1206 m 5
 87 1259 244 1313 351 1313 c 4
 553 1313 711 1280 711 1154 c 4
 711 1054 569 979 463 954 c 5
 463 944 l 5
 682 953 744 895 748 777 c 4
 753 627 556 499 270 499 c 4
 191 499 125 508 64 527 c 5
 111 804 l 5
 269 796 l 5
 280 675 l 5
 289 673 299 671 308 671 c 4
 345 671 382 694 382 744 c 4
 382 805 338 861 262 841 c 5
 226 966 l 5
 326 982 372 1018 372 1066 c 4
 372 1126 333 1152 294 1152 c 4
 288 1152 272 1151 266 1151 c 5
 234 1001 l 5
 88 1006 l 5
 50 1206 l 5
EndSplineSet
Colour: ffffff
EndChar

StartChar: tilde
Encoding: 194 732 184
Width: 787
VWidth: 0
Flags: HMW
LayerCount: 2
Back
SplineSet
248.555 1375.57 m 4
 214.092 1375.57 188.344 1311.49 188.344 1311.49 c 5
 71.3438 1322.49 l 5
 72.2137 1487.5 135.979 1600 258.128 1600 c 4
 295.687 1600 331.213 1591.82 366 1581.66 c 5
 389.538 1574.78 412.737 1567 436 1560.22 c 5
 469.193 1550.55 502.516 1542.92 537.133 1542.92 c 4
 576.743 1542.92 597.344 1607 597.344 1607 c 5
 712.344 1596 l 5
 711.483 1430.99 648.401 1318.49 527.56 1318.49 c 4
 485.309 1318.49 446.105 1328.36 408 1339.9 c 5
 385.755 1346.63 363.884 1353.93 342 1360.16 c 5
 311.237 1368.92 280.448 1375.57 248.555 1375.57 c 4
EndSplineSet
Fore
SplineSet
71 1322 m 1
 78 1596 210 1630 376 1579 c 2
 446 1557 l 2
 536 1529 578 1538 597 1607 c 1
 712 1596 l 1
 698 1339 596 1282 418 1337 c 2
 352 1357 l 2
 237 1392 211 1375 188 1311 c 1
 71 1322 l 1
EndSplineSet
Colour: ffffff
EndChar

StartChar: two
Encoding: 18 50 185
Width: 962
VWidth: 0
Flags: HMW
LayerCount: 2
Back
SplineSet
693.759 0 m 1
 76.7256 0 l 1
 71.8799 82.3789 l 1
 262.481 247.944 l 2
 313.362 291.557 313.362 291.557 345.668 321.438 c 128
 367.205 341.36 392.106 366.666 420.374 397.356 c 128
 448.642 428.047 470.852 456.045 487.004 481.351 c 128
 503.156 506.656 517.155 535.327 529.001 567.363 c 128
 540.847 599.4 546.769 631.302 546.769 663.068 c 0
 546.769 799.29 491.581 867.131 381.204 866.593 c 0
 292.902 866.593 221.83 798.213 167.988 661.453 c 1
 101.762 685.683 l 1
 109.838 720.142 123.703 754.466 143.355 788.655 c 128
 163.008 822.846 186.698 853.939 214.427 881.938 c 128
 242.156 909.936 274.865 932.684 312.555 950.183 c 128
 350.244 967.682 389.28 976.431 429.662 976.431 c 0
 516.348 976.431 582.036 952.471 626.725 904.552 c 128
 671.414 856.632 693.759 787.982 693.759 698.604 c 0
 693.759 670.606 689.721 642.608 681.645 614.61 c 128
 673.567 586.612 663.606 560.768 651.762 537.077 c 128
 639.916 513.387 624.302 488.619 604.919 462.775 c 128
 585.535 436.931 566.96 414.451 549.191 395.338 c 128
 531.424 376.224 509.887 354.821 484.581 331.131 c 128
 459.275 307.439 437.873 288.326 420.374 273.788 c 128
 394.126 251.982 394.126 251.982 355.359 219.677 c 128
 316.593 187.371 316.593 187.371 298.825 172.026 c 2
 225.33 108.223 l 1
 605.727 108.223 l 1
 683.26 251.982 l 1
 738.986 243.906 l 1
 693.759 0 l 1
EndSplineSet
Fore
SplineSet
45 163 m 1
 310 342 l 2
 447 434 505 549 505 641 c 0
 505 737 443 809 347 809 c 0
 270 809 207 720 185 626 c 1
 69 714 l 1
 85 843 232 1037 522 1037 c 0
 764 1037 842 842 842 727 c 0
 842 580 706 411 544 309 c 2
 385 209 l 1
 666 209 l 1
 781 375 l 1
 916 362 l 1
 870 0 l 1
 75 0 l 1
 45 163 l 1
EndSplineSet
Colour: ffffff
EndChar

StartChar: two.superior
Encoding: 113 178 186
Width: 782
VWidth: 0
Flags: HMW
LayerCount: 2
Fore
SplineSet
57 706 m 1
 173 789 l 2
 310 887 367 987 367 1044 c 0
 367 1083 340 1106 295 1106 c 0
 277 1106 267 1102 248 1095 c 1
 208 922 l 1
 99 932 l 1
 57 1160 l 1
 131 1228 256 1276 400 1276 c 0
 615 1276 697 1161 697 1085 c 0
 697 932 524 828 407 780 c 2
 327 747 l 1
 528 727 l 1
 616 848 l 1
 727 842 l 1
 693 528 l 1
 71 528 l 1
 57 706 l 1
EndSplineSet
Colour: ffffff
EndChar

StartChar: u
Encoding: 85 117 187
Width: 1267
VWidth: 0
Flags: HMW
LayerCount: 2
Back
SplineSet
992 898.617 m 1
 975 741.617 l 1
 833 669.617 l 1
 833 258.617 l 1
 975 177.617 l 1
 948 9.61719 l 1
 545 -19.3828 l 1
 507 19.6172 l 1
 530 121.617 l 1
 515 127.617 l 1
 423 31.6172 338 -30 225.551 -30 c 0
 80 -30 -20 49.6172 -20 257.617 c 2
 -20 669.617 l 1
 -168 733.617 l 1
 -145 898.617 l 1
 291 898.617 l 1
 291 741.617 l 1
 291 669.617 l 1
 291 469.617 l 2
 291 341.252 324 296.589 385.729 296.589 c 0
 432 296.589 474 310.617 515 346.617 c 1
 515 669.617 l 1
 392 732.617 l 1
 420 898.617 l 1
 992 898.617 l 1
EndSplineSet
Fore
SplineSet
53 829 m 1
 82 979 l 1
 682 979 l 1
 660 829 l 1
 565 762 l 1
 565 346 l 2
 565 236 622 193 704 193 c 0
 782 193 835 235 835 332 c 2
 835 755 l 1
 729 829 l 1
 749 979 l 1
 1214 979 l 1
 1197 829 l 1
 1082 762 l 1
 1078 360 l 2
 1072 92 924 -27 653 -27 c 0
 471 -27 193 -11 193 329 c 2
 193 755 l 1
 53 829 l 1
EndSplineSet
Colour: ffffff
EndChar

StartChar: uacute
Encoding: 185 250 188
Width: 1227
VWidth: 0
Flags: HMW
LayerCount: 2
Fore
SplineSet
33 829 m 1
 62 979 l 1
 662 979 l 1
 640 829 l 1
 545 762 l 1
 545 346 l 2
 545 236 602 193 684 193 c 0
 762 193 815 235 815 332 c 2
 815 755 l 1
 709 829 l 1
 729 979 l 1
 1194 979 l 1
 1177 829 l 1
 1062 762 l 1
 1058 360 l 2
 1052 92 904 -27 633 -27 c 0
 451 -27 173 -11 173 329 c 2
 173 755 l 1
 33 829 l 1
515 1063 m 5
 660 1368 l 5
 1010 1358 l 5
 749 1037 l 5
 515 1063 l 5
EndSplineSet
Colour: ffffff
EndChar

StartChar: ucircumflex
Encoding: 186 251 189
Width: 1227
VWidth: 0
Flags: HMW
LayerCount: 2
Fore
SplineSet
33 829 m 1
 62 979 l 1
 662 979 l 1
 640 829 l 1
 545 762 l 1
 545 346 l 2
 545 236 602 193 684 193 c 0
 762 193 815 235 815 332 c 2
 815 755 l 1
 709 829 l 1
 729 979 l 1
 1194 979 l 1
 1177 829 l 1
 1062 762 l 1
 1058 360 l 2
 1052 92 904 -27 633 -27 c 0
 451 -27 173 -11 173 329 c 2
 173 755 l 1
 33 829 l 1
338 1051 m 1
 491 1306 l 1
 816 1306 l 1
 970 1051 l 1
 717 1042 l 1
 653 1163 l 1
 639 1163 l 1
 571 1041 l 1
 338 1051 l 1
EndSplineSet
Colour: ffffff
EndChar

StartChar: udieresis
Encoding: 187 252 190
Width: 1227
VWidth: 0
Flags: HMW
LayerCount: 2
Fore
SplineSet
33 829 m 1
 62 979 l 1
 662 979 l 1
 640 829 l 1
 545 762 l 1
 545 346 l 2
 545 236 602 193 684 193 c 0
 762 193 815 235 815 332 c 2
 815 755 l 1
 709 829 l 1
 729 979 l 1
 1194 979 l 1
 1177 829 l 1
 1062 762 l 1
 1058 360 l 2
 1052 92 904 -27 633 -27 c 0
 451 -27 173 -11 173 329 c 2
 173 755 l 1
 33 829 l 1
352 1146 m 0
 352 1192 382 1253 490 1253 c 0
 604 1253 633 1193 633 1148 c 0
 633 1088 600 1039 489 1039 c 0
 374 1039 352 1095 352 1146 c 0
661 1146 m 0
 661 1192 691 1253 799 1253 c 0
 913 1253 942 1193 942 1148 c 0
 942 1088 909 1039 798 1039 c 0
 683 1039 661 1095 661 1146 c 0
EndSplineSet
Colour: ffffff
EndChar

StartChar: ugrave
Encoding: 184 249 191
Width: 1227
VWidth: 0
Flags: HMW
LayerCount: 2
Fore
SplineSet
33 829 m 1
 62 979 l 1
 662 979 l 1
 640 829 l 1
 545 762 l 1
 545 346 l 2
 545 236 602 193 684 193 c 0
 762 193 815 235 815 332 c 2
 815 755 l 1
 709 829 l 1
 729 979 l 1
 1194 979 l 1
 1177 829 l 1
 1062 762 l 1
 1058 360 l 2
 1052 92 904 -27 633 -27 c 0
 451 -27 173 -11 173 329 c 2
 173 755 l 1
 33 829 l 1
304 1358 m 1
 654 1368 l 1
 799 1063 l 1
 565 1037 l 1
 304 1358 l 1
EndSplineSet
Colour: ffffff
EndChar

StartChar: underscore
Encoding: 63 95 192
Width: 965
VWidth: 0
Flags: HMW
LayerCount: 2
Fore
SplineSet
60 -130 m 1
 76 52 l 1
 903 52 l 1
 887 -130 l 1
 60 -130 l 1
EndSplineSet
Colour: ffffff
EndChar

StartChar: Germandbls
Encoding: 195 7838 193
Width: 1676
VWidth: 0
Flags: HMW
LayerCount: 2
Fore
SplineSet
42 0 m 5
 55 136 l 5
 209 212 l 1
 209 728 l 2
 209 1105 616 1268 976 1268 c 0
 1266 1268 1587 1188 1587 998 c 0
 1587 887 1540 801 1421 760 c 1
 1301 946 1170 1030 1091 1030 c 0
 1045 1030 1017 992 1017 940 c 0
 1017 771 1634 774 1634 351 c 0
 1634 38 1274 -23 1087 -23 c 0
 857 -23 689 42 635 126 c 1
 669 488 l 1
 846 459 l 1
 888 272 l 1
 930 212 1029 181 1114 181 c 0
 1193 181 1240 198 1240 251 c 0
 1240 447 643 408 643 797 c 0
 643 946 755 1035 836 1050 c 1
 826 1060 l 1
 810 1062 796 1063 782 1063 c 0
 618 1063 569 927 569 751 c 2
 569 0 l 1
 42 0 l 5
EndSplineSet
AlternateSubs2: "Alternate Substitution in Latin lookup 0-1" Germandbls.alt
Colour: ffffff
EndChar

StartChar: Germandbls.alt
Encoding: 208 -1 194
Width: 1669
VWidth: 0
Flags: HMW
LayerCount: 2
Back
SplineSet
1098 837.057 m 5
 1292.91 751.327 1580 660.405 1580 381 c 4
 1580 68 1220 -23 1033 -23 c 4
 803 -23 635 42 581 126 c 5xe8
 615 488 l 5
 792 459 l 5
 834 272 l 5
 876 212 974 181 1059 181 c 4
 1138 181 1186 228 1186 281 c 4
 1186 450.871 737.562 439.715 618 710.403 c 5
 599.61 752.039 589 800.343 589 857 c 4
EndSplineSet
Fore
SplineSet
43 1 m 5
 56 137 l 5
 210 213 l 5
 210 729 l 6
 210 1106 617 1269 977 1269 c 4
 1239 1269 1450 1227 1555 1187 c 5
 1535 1040 l 5
 1188 797 l 5
 1408 733 1620 660 1620 381 c 4
 1620 68 1260 -23 1073 -23 c 4
 843 -23 675 42 621 126 c 5
 655 488 l 5
 832 459 l 5
 874 272 l 5
 916 212 1014 181 1099 181 c 4
 1178 181 1226 228 1226 281 c 4
 1226 446 938 582 758 630 c 5
 732 697 l 5
 1078 1017 l 5
 1078 1025 l 5
 987 1058 905 1076 834 1076 c 4
 671 1076 570 981 570 752 c 6
 570 1 l 5
 43 1 l 5
EndSplineSet
Colour: ffffff
EndChar

StartChar: v
Encoding: 86 118 195
Width: 1235
VWidth: 0
Flags: HMW
LayerCount: 2
Fore
SplineSet
53 822 m 1
 73 979 l 1
 629 979 l 1
 606 822 l 1
 544 762 l 1
 679 348 l 1
 806 760 l 1
 742 822 l 1
 757 979 l 1
 1182 979 l 1
 1167 822 l 1
 1083 762 l 1
 764 25 l 1
 451 -33 l 1
 148 760 l 1
 53 822 l 1
EndSplineSet
Colour: ffffff
EndChar

StartChar: w
Encoding: 87 119 196
Width: 1659
VWidth: 0
Flags: HMW
LayerCount: 2
Fore
SplineSet
53 824 m 1
 64 979 l 1
 563 979 l 1
 522 802 l 1
 564.298 590 l 1
 595 364 l 1
 644.969 650 l 1
 709 935 l 1
 1007 975 l 1
 1098.16 626 l 1
 1142 412 l 1
 1187.39 623 l 1
 1223 765 l 1
 1216 819 l 1
 1207 979 l 1
 1606 979 l 1
 1581 822 l 1
 1499 768 l 1
 1266 28 l 1
 953 -33 l 1
 884.933 233 l 1
 824 527 l 1
 762.785 245 l 1
 703 28 l 1
 387 -34 l 1
 159 758 l 1
 53 824 l 1
EndSplineSet
Colour: ffffff
EndChar

StartChar: x
Encoding: 88 120 197
Width: 1215
VWidth: 0
Flags: HMW
LayerCount: 2
Fore
SplineSet
53 0 m 1
 78 157 l 1
 157 233 l 1
 403 490 l 1
 159 747 l 1
 83 801 l 1
 111 979 l 1
 656 979 l 1
 629 811 l 1
 588 745 l 1
 695 636 l 1
 781 749 l 1
 747 819 l 1
 774 979 l 1
 1162 979 l 1
 1138 822 l 1
 1058 750 l 1
 828 501 l 1
 1098 225 l 1
 1151 179 l 1
 1125 0 l 1
 581 0 l 1
 610 166 l 1
 650 231 l 1
 543 343 l 1
 451 232 l 1
 494 167 l 1
 463 0 l 1
 53 0 l 1
EndSplineSet
Colour: ffffff
EndChar

StartChar: y
Encoding: 89 121 198
Width: 1107
VWidth: 0
Flags: HMW
LayerCount: 2
Fore
SplineSet
53 823 m 5
 83 979 l 5
 589 979 l 5
 563 823 l 5
 509 762 l 5
 598 552 l 5
 699 759 l 5
 649 821 l 5
 671 978 l 5
 1054 978 l 5
 1032 821 l 5
 959 761 l 5
 729 359 l 5
 729 221 l 5
 846 140 l 5
 833 0 l 5
 231 0 l 5
 249 138 l 5
 358 217 l 5
 358 346 l 5
 123 761 l 5
 53 823 l 5
EndSplineSet
Colour: ffffff
EndChar

StartChar: yacute
Encoding: 188 253 199
Width: 1067
VWidth: 0
Flags: HMW
LayerCount: 2
Fore
SplineSet
33 823 m 5
 63 979 l 5
 569 979 l 5
 543 823 l 5
 489 762 l 5
 578 552 l 5
 679 759 l 5
 629 821 l 5
 651 978 l 5
 1034 978 l 5
 1012 821 l 5
 939 761 l 5
 709 359 l 5
 709 221 l 5
 826 140 l 5
 813 0 l 5
 211 0 l 5
 229 138 l 5
 338 217 l 5
 338 346 l 5
 103 761 l 5
 33 823 l 5
409 1064 m 5
 554 1369 l 5
 904 1359 l 5
 643 1038 l 5
 409 1064 l 5
EndSplineSet
Colour: ffffff
EndChar

StartChar: ydieresis
Encoding: 190 255 200
Width: 1067
VWidth: 0
Flags: HMW
LayerCount: 2
Fore
SplineSet
33 823 m 5
 63 979 l 5
 569 979 l 5
 543 823 l 5
 489 762 l 5
 578 552 l 5
 679 759 l 5
 629 821 l 5
 651 978 l 5
 1034 978 l 5
 1012 821 l 5
 939 761 l 5
 709 359 l 5
 709 221 l 5
 826 140 l 5
 813 0 l 5
 211 0 l 5
 229 138 l 5
 338 217 l 5
 338 346 l 5
 103 761 l 5
 33 823 l 5
277 1144 m 0
 277 1190 307 1251 415 1251 c 0
 529 1251 558 1191 558 1146 c 0
 558 1086 525 1037 414 1037 c 0
 299 1037 277 1093 277 1144 c 0
586 1144 m 0
 586 1190 616 1251 724 1251 c 0
 838 1251 867 1191 867 1146 c 0
 867 1086 834 1037 723 1037 c 0
 608 1037 586 1093 586 1144 c 0
EndSplineSet
Colour: ffffff
EndChar

StartChar: yen
Encoding: 100 165 201
Width: 1066
VWidth: 0
Flags: HMW
LayerCount: 2
Fore
SplineSet
32 823 m 1
 62 979 l 1
 568 979 l 1
 542 823 l 1
 488 762 l 1
 577 532 l 1
 678 759 l 1
 628 821 l 1
 650 978 l 1
 1033 978 l 1
 1011 821 l 1
 938 761 l 1
 729 408 l 1
 1004 408 l 1
 994 290 l 1
 688 290 l 1
 688 221 l 1
 805 140 l 1
 792 0 l 1
 240 0 l 1
 258 138 l 1
 367 217 l 1
 367 290 l 1
 47 290 l 1
 64 408 l 1
 317 408 l 1
 102 761 l 1
 32 823 l 1
47 500 m 1
 64 621 l 1
 422 621 l 9
 499 500 l 17
 47 500 l 1
675 500 m 9
 752 621 l 17
 1004 621 l 1
 994 500 l 1
 675 500 l 9
EndSplineSet
Colour: ffffff
EndChar

StartChar: z
Encoding: 90 122 202
Width: 1018
VWidth: 0
Flags: HMW
LayerCount: 2
Fore
SplineSet
54 216 m 1
 585 804 l 1
 335 804 l 1
 262 597 l 1
 62 629 l 1
 83 979 l 1
 962 979 l 1
 954 774 l 1
 444 206 l 1
 657 176 l 1
 814 397 l 1
 964 374 l 1
 933 0 l 1
 67 0 l 1
 54 216 l 1
EndSplineSet
Colour: ffffff
EndChar

StartChar: zero
Encoding: 16 48 203
Width: 896
VWidth: 0
Flags: HMW
LayerCount: 2
Fore
SplineSet
54 508 m 0
 54 823 282 1023 459 1023 c 0
 684 1023 841 837 841 530 c 0
 841 135 616 -20 448 -20 c 0
 295 -20 54 76 54 508 c 0
393 544 m 0
 393 186 400 153 448 153 c 0
 492 153 511 186 511 523 c 0
 511 840 488 874 454 874 c 0
 410 874 393 842 393 544 c 0
EndSplineSet
Colour: ffffff
EndChar

StartChar: micro
Encoding: 116 181 204
Width: 1230
VWidth: 0
Flags: HMW
LayerCount: 2
Fore
SplineSet
44 718 m 1
 78 901 l 1
 442 923 l 1
 498 870 l 1
 498 469 l 2
 498 341 519 296 581 296 c 0
 627 296 664 310 705 346 c 1
 705 604 l 1
 576 680 l 1
 610 889 l 1
 968 931 l 1
 1021 878 l 1
 1021 373 l 2
 1021 270 1050 237 1159 202 c 2
 1187 193 l 1
 1162 23 l 1
 1087 -12 996 -35 916 -35 c 0
 807 -35 719 7 719 115 c 2
 719 128 l 1
 706 134 l 1
 646 27 532 -31 437 -31 c 0
 392 -32 365 -27 345 -9 c 1
 328 -12 l 1
 348 -56 358 -116 364 -180 c 2
 386 -387 l 1
 118 -361 l 1
 136 -196 169 289 169 493 c 2
 169 613 l 1
 44 718 l 1
EndSplineSet
Colour: ffffff
EndChar

StartChar: quotedblleft
Encoding: 201 8220 205
Width: 1034
VWidth: 0
Flags: HMW
LayerCount: 2
Fore
SplineSet
919 833 m 0
 920 713 833 651 717 651 c 0
 537 651 474 763 474 917 c 0
 474 1081 594 1267 868 1306 c 1
 912 1188 l 5
 796 1150 747 1071 747 1009 c 0
 747 952 786 919 834 919 c 0
 851 919 870 923 888 932 c 1
 909 897 919 869 919 833 c 0
435 833 m 0
 436 713 349 651 233 651 c 0
 53 651 -10 763 -10 917 c 0
 -10 1081 110 1267 384 1306 c 1
 428 1188 l 5
 312 1150 263 1071 263 1009 c 0
 263 952 302 919 350 919 c 0
 367 919 386 923 404 932 c 1
 425 897 435 869 435 833 c 0
EndSplineSet
Colour: ffffff
EndChar

StartChar: quotedblright
Encoding: 202 8221 206
Width: 1034
VWidth: 0
Flags: HMW
LayerCount: 2
Fore
SplineSet
599 1124 m 0
 598 1244 685 1306 801 1306 c 0
 981 1306 1044 1194 1044 1040 c 0
 1044 876 924 690 650 651 c 1
 606 769 l 5
 722 807 771 886 771 948 c 0
 771 1005 732 1038 684 1038 c 0
 667 1038 648 1034 630 1025 c 1
 609 1060 599 1088 599 1124 c 0
115 1124 m 0
 114 1244 201 1306 317 1306 c 0
 497 1306 560 1194 560 1040 c 0
 560 876 440 690 166 651 c 1
 122 769 l 5
 238 807 287 886 287 948 c 0
 287 1005 248 1038 200 1038 c 0
 183 1038 164 1034 146 1025 c 1
 125 1060 115 1088 115 1124 c 0
EndSplineSet
Colour: ffffff
EndChar

StartChar: quoteleft
Encoding: 198 8216 207
Width: 550
VWidth: 0
Flags: HMW
LayerCount: 2
Fore
SplineSet
435 832 m 0
 436 712 349 650 233 650 c 0
 53 650 -10 762 -10 916 c 0
 -10 1080 110 1266 384 1305 c 1
 428 1187 l 5
 312 1149 263 1070 263 1008 c 0
 263 951 302 918 350 918 c 0
 367 918 386 922 404 931 c 1
 425 896 435 868 435 832 c 0
EndSplineSet
Colour: ffffff
EndChar

StartChar: quoteright
Encoding: 199 8217 208
Width: 550
VWidth: 0
Flags: HMW
LayerCount: 2
Fore
SplineSet
115 1123 m 0
 114 1243 201 1305 317 1305 c 0
 497 1305 560 1193 560 1039 c 0
 560 875 440 689 166 650 c 1
 122 768 l 5
 238 806 287 885 287 947 c 0
 287 1004 248 1037 200 1037 c 0
 183 1037 164 1033 146 1024 c 1
 125 1059 115 1087 115 1123 c 0
EndSplineSet
Colour: ffffff
EndChar

StartChar: germandbls.alt
Encoding: 209 -1 209
Width: 1429
VWidth: 0
Flags: HMW
LayerCount: 2
Back
SplineSet
32 0 m 1
 45 136 l 1
 199 212 l 1
 199 547 l 2
 199 861.167 480 997 846 997 c 0
 1250 997 1405 932.704 1405 780 c 0
 1405 697.449 1362.53 633.491 1255 603 c 1
 1182.07 736.696 1107.98 813.184 1037.16 813.184 c 0
 989.225 813.184 958 782.515 958 741 c 0
 958 595 1452 545 1452 282 c 4
 1452 26.7461 1164.39 -23 1015 -23 c 4
 816.04 -23 670.712 5.35571 624 42 c 5
 661 359 l 5
 838 330 l 5
 877 175 l 5
 899.301 155.879 951.867 146 997 146 c 4
 1068.48 146 1111 161.057 1111 208 c 4
 1111 307 633 373 633 642 c 0
 633 752.131 704.379 817.913 756 829 c 1
 756 839 l 1
 625 849 559 777 559 570 c 2
 559 0 l 1
 32 0 l 1
EndSplineSet
Fore
SplineSet
32 1 m 5
 45 137 l 1
 139 193 l 1
 139 569 l 2
 139 868 446 997 809 997 c 0
 1042 997 1229 970 1322 945 c 1
 1312 828 l 1
 1024 594 l 1
 1214 546 1397 424 1397 280 c 0
 1397 25 1109 -25 960 -25 c 0
 761 -25 616 3 569 40 c 1
 606 357 l 1
 783 328 l 1
 822 173 l 1
 844 154 897 144 942 144 c 0
 1004 144 1058 174 1058 219 c 0
 1059 319 771 433 670 452 c 1
 644 519 l 1
 970 792 l 1
 970 800 l 1
 889 828 816 844 753 844 c 0
 578 844 499 787 499 592 c 2
 499 1 l 1
 32 1 l 5
EndSplineSet
Colour: ffffff
EndChar

StartChar: OE
Encoding: 210 338 210
Width: 1832
VWidth: 0
Flags: HW
LayerCount: 2
Fore
SplineSet
0 619 m 4
 0 1021 153 1269 607 1269 c 4
 694 1269 755 1259 806 1241 c 5
 1747 1244 l 5
 1717 826 l 5
 1546 852 l 5
 1463 1072 l 13
 1134 1072 l 21
 1134 712 l 5
 1324 728.124 l 5
 1344 729.821 l 5
 1570 749 l 5
 1535 502 l 5
 1320 522.374 l 5
 1300 525.27 l 5
 1134 540 l 5
 1134 178 l 13
 1521 180 l 21
 1667 428 l 5
 1832 411 l 5
 1802 0 l 5
 761 0 l 5
 697 -18 626 -27 536 -27 c 4
 155 -27 0 210 0 619 c 4
447 671 m 4
 447 548 462 195 640 195 c 4
 675 195 716 209 765 240 c 5
 765 1058 l 5
 705 1083 652 1104 606 1104 c 4
 508 1104 447 1010 447 671 c 4
EndSplineSet
EndChar

StartChar: oe
Encoding: 211 339 211
Width: 1832
VWidth: 0
Flags: HW
LayerCount: 2
Back
SplineSet
55 469 m 0
 55 782 257 997 593 997 c 0
 901 997 1120 864 1120 504 c 0
 1120 158 870 -27 553 -27 c 0
 210 -27 55 177 55 469 c 0
458 531 m 0
 458 426 480 163 591 163 c 0
 663 163 701 263 701 494 c 0
 701 627 661 822 562 822 c 0
 486 822 458 711 458 531 c 0
623 835 m 1
 642 979 l 1
 1635 979 l 5
 1605 611 l 5
 1434 637 l 5
 1351 807 l 5
 1126 807 l 5
 1126 559 l 5
 1251 575 l 5
 1278 578 l 5
 1415 596 l 5
 1382 390 l 5
 1269 406 l 5
 1239 411 l 5
 1126 427 l 5
 1126 203 l 5
 1329 180 l 5
 1465 378 l 5
 1630 361 l 5
 1600 0 l 5
 639 0 l 1
 649 158 l 1
 753 217 l 1
 753 765 l 1
 623 835 l 1
EndSplineSet
Fore
SplineSet
1600 0 m 1
 761 0 l 1
 711.222 -18 656 -27 586 -27 c 0
 261.866 -27 130 148 130 449 c 0
 130 789 254.318 999 624 999 c 0
 703.287 999 759.149 991.742 806 979.3 c 1
 1635 979.3 l 1
 1605 611 l 1
 1434 637 l 1
 1351 807 l 1
 1126 807 l 1
 1126 559 l 1
 1251 575 l 1
 1278 578 l 1
 1415 596 l 1
 1382 390 l 1
 1269 406 l 1
 1239 411 l 1
 1126 427 l 1
 1126 203 l 1
 1329 180 l 1
 1465 378 l 1
 1630 361 l 1
 1600 0 l 1
517 501 m 0
 517 417 528.891 175 670 175 c 0
 696.6 175 727.76 179.667 765 190 c 1
 765 813 l 1
 727.641 821.696 694.642 829 666 829 c 0
 574.164 829 517 758 517 501 c 0
EndSplineSet
EndChar

StartChar: trademark
Encoding: 213 8482 213
Width: 1400
VWidth: 0
Flags: HW
LayerCount: 2
Fore
SplineSet
603.8 717.6 m 1
 613.25 786.899 l 1
 688.85 822.449 l 1
 714.95 1181.1 l 1
 632.15 1206.75 l 1
 639.35 1277.4 l 1
 932.95 1277.4 l 1
 964.9 1185.15 l 1
 1035.55 961.949 l 1
 1105.75 1186.05 l 1
 1135.9 1277.4 l 1
 1426.9 1277.4 l 1
 1418.8 1206.75 l 1
 1345.9 1182.45 l 1
 1377.4 820.649 l 1
 1456.6 790.05 l 1
 1450.3 717.6 l 1
 1146.85 717.6 l 1
 1157.2 786.899 l 1
 1207.6 822.449 l 1
 1183.75 1066.8 l 1
 1082.5 731.55 l 1
 934.15 714 l 1
 826.6 1071.75 l 1
 811.75 820.649 l 1
 869.8 790.05 l 1
 858.55 717.6 l 1
 603.8 717.6 l 1
4 1277.4 m 1
 603.8 1277.4 l 1
 589.4 1062.8 l 1
 497.05 1076.75 l 1
 468.25 1197 l 1
 388.45 1197 l 1
 388.45 811.199 l 1
 479.35 786.449 l 1
 472.15 717.6 l 1
 125.5 717.6 l 1
 131.35 780.6 l 1
 211 811.649 l 1
 211 1197 l 1
 131 1197 l 1
 91.8496 1058.3 l 1
 5.34961 1070 l 1
 4 1277.4 l 1
EndSplineSet
EndChar

StartChar: fraction
Encoding: 216 8260 216
Width: 1402
VWidth: 0
Flags: HW
LayerCount: 2
Fore
SplineSet
0 55 m 1
 557 608 l 1
 1100 1227 l 1
 1402 1225 l 1
 1402 1150 l 1
 861 611 l 1
 368 1 l 1
 0 55 l 1
EndSplineSet
EndChar

StartChar: lozenge
Encoding: 218 9674 218
Width: 788
VWidth: 0
Flags: HW
LayerCount: 2
Fore
SplineSet
0 476 m 1
 384 818 l 1
 788 482 l 1
 386 143 l 1
 0 476 l 1
EndSplineSet
EndChar

StartChar: Rcaron
Encoding: 220 344 219
Width: 1485
VWidth: 0
Flags: HW
LayerCount: 2
Fore
SplineSet
417 1597 m 5
 602 1634 l 5
 715 1549 l 5
 725 1549 l 5
 821 1631 l 5
 993 1602 l 5
 783 1401 l 5
 625 1391 l 5
 417 1597 l 5
EndSplineSet
Refer: 42 82 N 1 0 0 1 0 0 3
EndChar

StartChar: rcaron
Encoding: 221 345 220
Width: 1374
VWidth: 0
Flags: HW
LayerCount: 2
Fore
SplineSet
326.5 1279 m 5
 511.5 1316 l 5
 624.5 1231 l 5
 634.5 1231 l 5
 730.5 1313 l 5
 902.5 1284 l 5
 692.5 1083 l 5
 534.5 1073 l 5
 326.5 1279 l 5
EndSplineSet
Refer: 167 114 N 1 0 0 1 0 0 3
EndChar

StartChar: Ecaron
Encoding: 222 282 221
Width: 1306
VWidth: 0
Flags: HW
LayerCount: 2
Fore
SplineSet
416.5 1597 m 5
 601.5 1634 l 5
 714.5 1549 l 5
 724.5 1549 l 5
 820.5 1631 l 5
 992.5 1602 l 5
 782.5 1401 l 5
 624.5 1391 l 5
 416.5 1597 l 5
EndSplineSet
Refer: 12 69 N 1 0 0 1 0 0 3
EndChar

StartChar: ecaron
Encoding: 223 283 222
Width: 1119
VWidth: 0
Flags: HW
LayerCount: 2
Fore
SplineSet
336 1309 m 5
 521 1346 l 5
 634 1261 l 5
 644 1261 l 5
 740 1343 l 5
 912 1314 l 5
 702 1113 l 5
 544 1103 l 5
 336 1309 l 5
EndSplineSet
Refer: 96 101 N 1 0 0 1 0 0 3
EndChar

StartChar: Scaron
Encoding: 224 352 223
Width: 1008
VWidth: 0
Flags: HW
LayerCount: 2
Fore
SplineSet
219 1597 m 5
 404 1634 l 5
 517 1549 l 5
 527 1549 l 5
 623 1631 l 5
 795 1602 l 5
 585 1401 l 5
 427 1391 l 5
 219 1597 l 5
EndSplineSet
Refer: 43 83 N 1 0 0 1 0 0 3
EndChar

StartChar: scaron
Encoding: 225 353 224
Width: 929
VWidth: 0
Flags: HW
LayerCount: 2
Fore
SplineSet
218 1299 m 5
 403 1336 l 5
 516 1251 l 5
 526 1251 l 5
 622 1333 l 5
 794 1304 l 5
 584 1103 l 5
 426 1093 l 5
 218 1299 l 5
EndSplineSet
Refer: 170 115 N 1 0 0 1 0 0 3
EndChar

StartChar: Zcaron
Encoding: 226 381 225
Width: 1142
VWidth: 0
Flags: HW
LayerCount: 2
Fore
SplineSet
335.5 1597 m 5
 520.5 1634 l 5
 633.5 1549 l 5
 643.5 1549 l 5
 739.5 1631 l 5
 911.5 1602 l 5
 701.5 1401 l 5
 543.5 1391 l 5
 335.5 1597 l 5
EndSplineSet
Refer: 56 90 N 1 0 0 1 0 0 3
EndChar

StartChar: zcaron
Encoding: 227 382 226
Width: 1018
VWidth: 0
Flags: HW
LayerCount: 2
Fore
SplineSet
253.5 1279 m 5
 438.5 1316 l 5
 551.5 1231 l 5
 561.5 1231 l 5
 657.5 1313 l 5
 829.5 1284 l 5
 619.5 1083 l 5
 461.5 1073 l 5
 253.5 1279 l 5
EndSplineSet
Refer: 202 122 N 1 0 0 1 0 0 3
EndChar

StartChar: Ccaron
Encoding: 228 268 227
Width: 1235
VWidth: 0
Flags: HW
LayerCount: 2
Fore
SplineSet
394 1600 m 5
 579 1637 l 5
 692 1552 l 5
 702 1552 l 5
 798 1634 l 5
 970 1605 l 5
 760 1404 l 5
 602 1394 l 5
 394 1600 l 5
EndSplineSet
Refer: 9 67 N 1 0 0 1 0 0 3
EndChar

StartChar: ccaron
Encoding: 229 269 228
Width: 1020
VWidth: 0
Flags: HW
LayerCount: 2
Fore
SplineSet
279 1315 m 5
 464 1352 l 5
 577 1267 l 5
 587 1267 l 5
 683 1349 l 5
 855 1320 l 5
 645 1119 l 5
 487 1109 l 5
 279 1315 l 5
EndSplineSet
Refer: 79 99 N 1 0 0 1 0 0 3
EndChar
